<svg xmlns="http://www.w3.org/2000/svg" xmlns:xlink="http://www.w3.org/1999/xlink" width="74px" height="74px" viewBox="0 0 74 74" version="1.1" role="img"><title>Services – Prise de rendez-vous</title>
    <defs>
        <rect id="path-1" x="0" y="2" width="32" height="31" rx="3"></rect>
        <path d="M2,7 L30,7 C31.1045695,7 32,7.8954305 32,9 L32,30 C32,31.6568542 30.6568542,33 29,33 L3,33 C1.34314575,33 2.02906125e-16,31.6568542 0,30 L0,9 C-1.3527075e-16,7.8954305 0.8954305,7 2,7 Z" id="path-2"></path>
    </defs>
    <g id="homepage" stroke="none" stroke-width="1" fill="none" fill-rule="evenodd">
        <g transform="translate(-221.000000, -1278.000000)" id="product">
            <g transform="translate(161.000000, 1058.000000)">
                <g id="rdv" transform="translate(0.000000, 180.000000)">
                    <g id="content" transform="translate(60.000000, 40.000000)">
                        <g id="icon">
                            <circle id="bg" fill="#EAF8FF" cx="37" cy="37" r="37"></circle>
                            <g transform="translate(21.000000, 20.000000)" id="shape">
                                <g>
                                    <use fill="#CCEEFF" fill-rule="evenodd" xlink:href="#path-1"></use>
                                    <rect stroke="#73D2FF" stroke-width="1" x="0.5" y="2.5" width="31" height="30" rx="3"></rect>
                                </g>
                                <rect fill="#73D2FF" x="7" y="0" width="1" height="6" rx="0.5"></rect>
                                <rect fill="#73D2FF" x="24" y="0" width="1" height="6" rx="0.5"></rect>
                                <g>
                                    <use fill="#FFFFFF" fill-rule="evenodd" xlink:href="#path-2"></use>
                                    <path stroke="#73D2FF" stroke-width="1" d="M2,7.5 C1.17157288,7.5 0.5,8.17157288 0.5,9 L0.5,30 C0.5,31.3807119 1.61928813,32.5 3,32.5 L29,32.5 C30.3807119,32.5 31.5,31.3807119 31.5,30 L31.5,9 C31.5,8.17157288 30.8284271,7.5 30,7.5 L2,7.5 Z"></path>
                                </g>
                                <path d="M5.5,14 L10.5,14 C10.7761424,14 11,14.2238576 11,14.5 C11,14.7761424 10.7761424,15 10.5,15 L5.5,15 C5.22385763,15 5,14.7761424 5,14.5 C5,14.2238576 5.22385763,14 5.5,14 Z M13.5,14 L18.5,14 C18.7761424,14 19,14.2238576 19,14.5 C19,14.7761424 18.7761424,15 18.5,15 L13.5,15 C13.2238576,15 13,14.7761424 13,14.5 C13,14.2238576 13.2238576,14 13.5,14 Z M21.5,14 L26.5,14 C26.7761424,14 27,14.2238576 27,14.5 C27,14.7761424 26.7761424,15 26.5,15 L21.5,15 C21.2238576,15 21,14.7761424 21,14.5 C21,14.2238576 21.2238576,14 21.5,14 Z M5.5,19 L10.5,19 C10.7761424,19 11,19.2238576 11,19.5 C11,19.7761424 10.7761424,20 10.5,20 L5.5,20 C5.22385763,20 5,19.7761424 5,19.5 C5,19.2238576 5.22385763,19 5.5,19 Z M13.5,19 L18.5,19 C18.7761424,19 19,19.2238576 19,19.5 C19,19.7761424 18.7761424,20 18.5,20 L13.5,20 C13.2238576,20 13,19.7761424 13,19.5 C13,19.2238576 13.2238576,19 13.5,19 Z M21.5,19 L26.5,19 C26.7761424,19 27,19.2238576 27,19.5 C27,19.7761424 26.7761424,20 26.5,20 L21.5,20 C21.2238576,20 21,19.7761424 21,19.5 C21,19.2238576 21.2238576,19 21.5,19 Z M5.5,24 L10.5,24 C10.7761424,24 11,24.2238576 11,24.5 C11,24.7761424 10.7761424,25 10.5,25 L5.5,25 C5.22385763,25 5,24.7761424 5,24.5 C5,24.2238576 5.22385763,24 5.5,24 Z M13.5,24 L18.5,24 C18.7761424,24 19,24.2238576 19,24.5 C19,24.7761424 18.7761424,25 18.5,25 L13.5,25 C13.2238576,25 13,24.7761424 13,24.5 C13,24.2238576 13.2238576,24 13.5,24 Z M21.5,24 L26.5,24 C26.7761424,24 27,24.2238576 27,24.5 C27,24.7761424 26.7761424,25 26.5,25 L21.5,25 C21.2238576,25 21,24.7761424 21,24.5 C21,24.2238576 21.2238576,24 21.5,24 Z" fill="#73D2FF"></path>
                            </g>
                        </g>
                    </g>
                </g>
            </g>
        </g>
    </g>
</svg>