<svg xmlns="http://www.w3.org/2000/svg" id="Calque_1" data-name="Calque 1" width="74px" height="74px" viewBox="0 0 74 74" role="img"><title>Services – Gestion des dossiers</title><defs><style>.cls-1{fill:#f2fafe;}.cls-2{fill:#fcfcfc;stroke:#77d2fd;stroke-miterlimit:10;stroke-width:0.25px;}.cls-3{fill:#77d2fd;}</style></defs><title>dossier</title><ellipse class="cls-1" cx="37.86" cy="37.1" rx="35.28" ry="34.62"></ellipse><rect class="cls-2" x="29.43" y="14.59" width="19.01" height="24.06" transform="translate(-8.23 26.78) rotate(-34.55)"></rect><rect class="cls-3" x="30.1" y="17.38" width="10.16" height="0.85" transform="translate(-3.92 22.92) rotate(-34.3)"></rect><rect class="cls-3" x="32.37" y="20.63" width="10.16" height="0.85" transform="matrix(0.83, -0.56, 0.56, 0.83, -5.35, 24.76)"></rect><rect class="cls-3" x="34.48" y="23.88" width="10.16" height="0.85" transform="translate(-6.82 26.52) rotate(-34.3)"></rect><polygon class="cls-2" points="19.44 51.4 19.44 20.03 34.72 20.03 36.99 24.01 54.6 23.91 54.8 51.89 19.47 51.89 19.44 51.4"></polygon><line class="cls-2" x1="19.24" y1="29.29" x2="42.58" y2="29.29"></line><ellipse class="cls-2" cx="53.62" cy="50.86" rx="6.83" ry="6.55"></ellipse><rect class="cls-3" x="52.56" y="47.37" width="2.3" height="6.49"></rect><rect class="cls-3" x="52.65" y="47.22" width="1.96" height="6.49" transform="translate(104.09 -3.16) rotate(90)"></rect></svg>