<svg xmlns="http://www.w3.org/2000/svg" xmlns:xlink="http://www.w3.org/1999/xlink" width="74px" height="74px" viewBox="0 0 74 74" version="1.1" role="img"><title>Services – Réalisation des visites</title>
    <!-- Generator: Sketch 49 (51002) - http://www.bohemiancoding.com/sketch -->
    <title>icon</title>
    <desc>Created with Sketch.</desc>
    <defs>
        <path d="M14.0641554,10 L35.0800001,10 C36.1403868,10 37,10.8596132 37,11.9199999 L37,23.0800001 C37,24.1403868 36.1403868,25 35.0800001,25 L13.9880663,25 C13.3680002,25 12.7861042,24.7005459 12.4256981,24.1959774 L8.74627891,19.0447905 C8.29460292,18.4124441 8.2686321,17.5701886 8.68049043,16.9112153 L12.4359988,10.902402 C12.7868564,10.3410298 13.4021586,10 14.0641554,10 Z" id="path-1"></path>
        <path d="M10,21 L10,34.2338096 C10,34.7860944 9.55228475,35.2338096 9,35.2338096 C8.81875605,35.2338096 8.64091965,35.1845518 8.48550424,35.0913025 L5.48550424,33.2913025 C5.18429883,33.1105793 5,32.7850725 5,32.4338096 L5,25.9146471 C5.58259619,25.7087289 6,25.1531094 6,24.5 C6,23.8468906 5.58259619,23.2912711 5,23.0853529 L5,21 C4.44771525,21 4,20.5522847 4,20 L4,19 C4,18.9768389 4.0007874,18.9538617 4.00233688,18.9310937 C1.60984274,17.548189 3.62751887e-16,14.9620939 0,12 C-5.41083001e-16,7.581722 3.581722,4 8,4 C12.418278,4 16,7.581722 16,12 C16,15.3573776 13.9318303,18.2317082 11,19.418483 L11,20 C11,20.5522847 10.5522847,21 10,21 Z" id="path-2"></path>
    </defs>
    <g id="homepage" stroke="none" stroke-width="1" fill="none" fill-rule="evenodd">
        <g transform="translate(-811.000000, -1278.000000)" id="product">
            <g transform="translate(161.000000, 1058.000000)">
                <g id="vites" transform="translate(590.000000, 180.000000)">
                    <g id="content" transform="translate(60.000000, 40.000000)">
                        <g id="icon">
                            <circle id="bg" fill="#EAF8FF" cx="37" cy="37" r="37"></circle>
                            <g transform="translate(23.000000, 19.000000)" id="shape">
                                <g transform="translate(22.500000, 17.500000) rotate(50.000000) translate(-22.500000, -17.500000) ">
                                    <use fill="#CCEEFF" fill-rule="evenodd" xlink:href="#path-1"></use>
                                    <path stroke="#73D2FF" stroke-width="1" d="M14.0641554,10.5 C13.5745536,10.5 13.1194864,10.7522199 12.8599979,11.1674015 L9.10448959,17.1762148 C8.79988603,17.6635805 8.81909362,18.2864985 9.15314565,18.7541714 L12.8325649,23.9053583 C13.0991152,24.2785287 13.5294758,24.5 13.9880663,24.5 L35.0800001,24.5 C35.8642444,24.5 36.5,23.8642444 36.5,23.0800001 L36.5,11.9199999 C36.5,11.1357556 35.8642444,10.5 35.0800001,10.5 L14.0641554,10.5 Z"></path>
                                </g>
                                <g>
                                    <use fill="#FFFFFF" fill-rule="evenodd" xlink:href="#path-2"></use>
                                    <path stroke="#73D2FF" stroke-width="1" d="M5.5,22.7674808 C6.10707752,23.1180382 6.5,23.7716433 6.5,24.5 C6.5,25.2283567 6.10707752,25.8819618 5.5,26.2325192 L5.5,32.4338096 C5.5,32.609441 5.59214942,32.7721945 5.74275212,32.8625561 L8.74275212,34.6625561 C8.82045982,34.7091807 8.90937803,34.7338096 9,34.7338096 C9.27614237,34.7338096 9.5,34.509952 9.5,34.2338096 L9.5,20.5 L10,20.5 C10.2761424,20.5 10.5,20.2761424 10.5,20 L10.5,19.0814673 L10.8123925,18.955014 C13.6223026,17.8175914 15.5,15.0832499 15.5,12 C15.5,7.85786438 12.1421356,4.5 8,4.5 C3.85786438,4.5 0.5,7.85786438 0.5,12 C0.5,14.7097731 1.94873995,17.1665604 4.25255365,18.4982062 L4.52234111,18.6541483 L4.501183,18.965043 C4.50020095,18.9823474 4.50020095,18.9823474 4.5,19 L4.5,20 C4.5,20.2761424 4.72385763,20.5 5,20.5 L5.5,20.5 L5.5,22.7674808 Z"></path>
                                </g>
                                <path d="M17.8281897,9.56275708 C18.5646162,8.56642137 19,7.33405535 19,6 C19,2.6862915 16.3137085,0 13,0 C9.6862915,0 7,2.6862915 7,6 C7,7.51932073 7.56470738,8.90674698 8.49567932,9.96383596" stroke="#73D2FF" stroke-linecap="round" stroke-linejoin="round"></path>
                                <circle fill="#73D2FF" cx="8" cy="9" r="2"></circle>
                                <circle fill="#73D2FF" cx="17" cy="11" r="2"></circle>
                            </g>
                        </g>
                    </g>
                </g>
            </g>
        </g>
    </g>
</svg>