<svg xmlns="http://www.w3.org/2000/svg" id="Calque_1" data-name="Calque 1" viewBox="0 0 311.76 193.43" role="img"><title>Connectez-vous</title><defs><style>.cls-1{fill:#ebf3fa;}.cls-2{fill:#e1b891;}.cls-3{fill:#011542;}.cls-4{fill:#b09274;}.cls-5{fill:#db564e;}.cls-6{fill:#3a88ba;}.cls-7{fill:#50a4da;}.cls-8{fill:#f7f7f7;}.cls-9{fill:none;stroke:#e2e2e2;stroke-miterlimit:10;stroke-width:0.1px;}.cls-10{fill:#eaeaea;}</style></defs><path class="cls-1" d="M269.3,155.07l0,0a.2.2,0,0,0,0-.06c.08-.15,32.74-41.89-18.06-70.92C231.4,72.7,252.52,65.2,236.71,52.55c-18.17-14.54-38,1.56-58.18-5a33.84,33.84,0,0,1-10.74-5.91,40.39,40.39,0,0,0-7.7-4.8c-7.28-3.5-15.63-5.14-23.8-5.62-22.57-1.31-48,6.1-61.06,16.93-2.64,2.19-14.64,13.47-5.17,29,6,9.79-19,19.14-27.93,30.33-15.05,18.94-10.19,33.78-5.21,41.69.63,1,1.26,1.89,1.86,2.67A36.76,36.76,0,0,0,42,155.41Z"></path><path class="cls-2" d="M124.8,35.68s-.38,4.56-3.51,5.28v3.12h3.51s-2.55,4.56-7.11,4.56-7.2-4.32-7.2-4.32l3.6-.24V41l-1.2-2.4-.06-9.11,4.81-6.23,3.65,1.17,4.92,2.21Z"></path><path class="cls-3" d="M113.86,33.19s.27,4.66-1,5.37c0,0-5.76-4.08-3.36-8.4,0,0-7.06-.66-4.32-5.77s6,.6,6,.6,8.2-6.84,10.12-.6"></path><path class="cls-3" d="M120.44,23.84s3.74,2.67,4.36,5.11,0,6.73,0,6.73a8,8,0,0,0,2-5.64C126.82,26.31,123.41,20.24,120.44,23.84Z"></path><path class="cls-3" d="M108.38,76.65s-5,55.87,0,81.31h6.85l2.84-60.78V76.65Z"></path><path class="cls-3" d="M127.35,76.65s5.05,55.87,0,81.31H120.5l-2.83-60.78V76.65Z"></path><path class="cls-3" d="M108.71,72.89s-4.71,8.27-4.35,24.29,2.77,52.11,2.77,52.11l10.74-47.81V72.89Z"></path><path class="cls-3" d="M126.39,72.89s5,8.27,4.65,24.29-2.77,52.11-2.77,52.11l-10.73-47.81V72.89Z"></path><path class="cls-4" d="M121.29,41s-3.71,1.11-6.06-.65"></path><path class="cls-4" d="M117.37,32a2.57,2.57,0,0,1,2,0"></path><path class="cls-4" d="M122.33,32a2.57,2.57,0,0,1,2,0"></path><path class="cls-4" d="M119,36.94a4.9,4.9,0,0,0,1,.53,2.77,2.77,0,0,0,1.05.24,2.84,2.84,0,0,0,2-.77,2.64,2.64,0,0,1-.86.76A2.13,2.13,0,0,1,121,38,3,3,0,0,1,119,36.94Z"></path><circle class="cls-4" cx="118.35" cy="32.64" r="0.29"></circle><circle class="cls-4" cx="123.29" cy="32.64" r="0.29"></circle><path class="cls-4" d="M121.29,32.64a15.21,15.21,0,0,1,.73,2.47v.08l-.06,0a9.4,9.4,0,0,1-1.14.7c.33-.31.66-.61,1-.88l0,.12A16.67,16.67,0,0,1,121.29,32.64Z"></path><rect class="cls-5" x="99.12" y="78.51" width="14.03" height="18.4" rx="1.03" transform="translate(144 -44.67) rotate(66.39)"></rect><path class="cls-6" d="M114.42,162.29s.81,4.7,1.85,6.19a.63.63,0,0,1-.15.91,4.89,4.89,0,0,1-2.64.61c-2.52,0-4.12-1.2-4.12-9.73C109.36,158,114.42,162.29,114.42,162.29Z"></path><path class="cls-2" d="M114.14,158h-4.92s-.11,8.64,4.16,8.64C115.13,166.61,114.14,158,114.14,158Z"></path><path class="cls-6" d="M126.91,162.29s.81,4.7,1.86,6.19a.63.63,0,0,1-.15.91A4.92,4.92,0,0,1,126,170c-2.52,0-4.12-1.2-4.12-9.73C121.86,158,126.91,162.29,126.91,162.29Z"></path><path class="cls-2" d="M126.64,158h-4.92s-.11,8.64,4.15,8.64C127.62,166.61,126.64,158,126.64,158Z"></path><path class="cls-2" d="M113.86,36.33S110,31.6,114,32.64,113.86,36.33,113.86,36.33Z"></path><path class="cls-7" d="M151.46,87.71s16.62,1,21.17-2.21c0,0-.9,25.74-1.28,29.3s-5.55,46-5.55,46,5.55.94,5.55,3.38-7.13,1.13-7.13,1.13,2.82,1.5,2.63,2.81-12.2,2.44-13.52-1.31S155.09,96.06,151.46,87.71Z"></path><path class="cls-2" d="M173.32,59.23s2.24,10.89,3.83,12.69,12.78,5.66,14.74,5.27,2-1.89,3.34-.89-2.46,1,2.38,2.14a.71.71,0,0,1,.39,1L196.69,82a.74.74,0,0,1-.75.39c-3-.41-18.91-2.62-22.87-5.73-4.39-3.44-6.32-13.22-6.32-13.22l1-2.63Z"></path><path class="cls-2" d="M146.69,62.3s-1.2,17.73,0,22,4,10.84,4,13.1a28.19,28.19,0,0,0,1.31,8.82,1.14,1.14,0,0,0,1.26.74l1.42-.25a1.12,1.12,0,0,0,.93-1.11v-2.17a.89.89,0,0,1,1.09-.86h0l-1.79-3.91-3.2-24.2,3.86-8.16S149.43,65.26,146.69,62.3Z"></path><path class="cls-6" d="M78.48,163.5s1.89,6.91,3.41,8.22-6.73,1.3-8.34-1.51,0-8.21,0-8.21Z"></path><path class="cls-2" d="M78.48,118.6h-9L74,164s1,5.81,3.36,5.81,1.14-6.31,1.14-6.31Z"></path><path class="cls-6" d="M61.33,163.62s1.55,7,3,8.4-6.78.93-8.25-2,.41-8.21.41-8.21Z"></path><path class="cls-2" d="M63.54,118.79l-9-.5,2.25,45.59s.71,5.85,3.07,6,1.45-6.25,1.45-6.25Z"></path><path class="cls-7" d="M55.48,47.85h6.59S72.23,57,73.23,63.38s-.29,14.17.42,17.26,6.56,23.22,6.56,40.11c0,0-18.24,3.54-28.29-.6V101.68L49.5,62.09S47.79,47.85,55.48,47.85Z"></path><path class="cls-2" d="M64.77,29.09s2.8,7.1,3.51,7.86-1.62.9-1.62.9,1.39,4.84-4.24,5.59c0,0-1,4.86-.1,6.29a11,11,0,0,1-6.84-1.88v-10Z"></path><path class="cls-3" d="M65.74,31.11a7.57,7.57,0,0,0,1.86-4.45c0-2.41-7-3.92-10.48-3.92a9.74,9.74,0,0,0-6,2.41S42.94,20.4,42.94,28s5.21,6,5.21,6,1.56,7,7.83,9.8l-.5-6s7.25-2.91,9.29-8.8Z"></path><path class="cls-2" d="M73.44,66.17V73l14.82-6.11s5.27.46,6-1.28.79-3.31,0-3.62a13.76,13.76,0,0,0-3.56,0s.5-2.71-.43-2.71-.57,2.64-3.2,4S73.44,66.17,73.44,66.17Z"></path><path class="cls-4" d="M63.09,39.76A4.65,4.65,0,0,0,66,41.17"></path><path class="cls-4" d="M62.49,34.76a1.73,1.73,0,0,1,1.35-.82,1.41,1.41,0,0,1,.8.23,1.9,1.9,0,0,1,.54.59,2,2,0,0,0-1.33-.57,1.76,1.76,0,0,0-.7.17A3.75,3.75,0,0,0,62.49,34.76Z"></path><path class="cls-2" d="M56.34,40.46s-3.89-5,.18-3.91S56.34,40.46,56.34,40.46Z"></path><path class="cls-2" d="M224.53,63.23s-4.09,10.34-6,11.84S205,78.42,203.13,77.69s-1.6-2.2-3.13-1.45,0,1.13-2.73,1.69a.74.74,0,0,0-.56,1l.86,2.65a.72.72,0,0,0,.67.51c3.07.14,19.08.71,23.52-1.66,4.92-2.62,8.52-11.92,8.52-11.92l-.54-2.76Z"></path><path class="cls-8" d="M224.53,63.23l-6,11.84-14.34,2.78.38,4.36s11.11.87,17.16-1.82,8.52-11.92,8.52-11.92l-.54-2.76Z"></path><path class="cls-3" d="M249.49,87.71s-16.62,1-21.17-2.21c0,0,.9,25.74,1.28,29.3s5.55,46,5.55,46-5.55.94-5.55,3.38,7.13,1.13,7.13,1.13-2.82,1.5-2.63,2.81,12.2,2.44,13.52-1.31S245.86,96.06,249.49,87.71Z"></path><path class="cls-3" d="M230.44,30.18s-2.36.25-3.67-4.85c0,0,6.42-3.57,11.91-3.57a6.53,6.53,0,0,1,6.55,5s3.79,2.17,1.83,7-4.37,5.88-4.67,8.61-8.55-9.51-8.55-9.51Z"></path><path class="cls-2" d="M230.44,30.18s-1.83,5.09-2.1,6.11,2.1.9,2.1.9-2,6.5,4.71,6.75v5.87s6.54.76,9-3.32a10.87,10.87,0,0,1-2-6.47c.26-3.47,1.18-5.64-.79-6.27s-1.44,2.67-2.62,2.54,0-3.56-1.57-4.2S232.27,31.58,230.44,30.18Z"></path><path class="cls-8" d="M226.77,56.82l5.5,5.22,2.88-12.23S228.21,54.52,226.77,56.82Z"></path><path class="cls-4" d="M233.2,39.18a4.72,4.72,0,0,1-2.9,1.32"></path><path class="cls-4" d="M234.2,33.88a5.3,5.3,0,0,0-2.7,0"></path><path class="cls-8" d="M244.18,46.49s7.59,1.66,10.08,15.81c0,0-1.7,4-8.9,4,0,0,3,7,3.86,8.16L247.62,87s-16.57,2.29-19.3-1.53c0,0,2.38-23.2,2.64-24.73,0,0-.55-6.94,3.07-10.17a5.94,5.94,0,0,1,1.12-.79A30.1,30.1,0,0,1,244.18,46.49Z"></path><ellipse class="cls-4" cx="232.85" cy="34.62" rx="0.29" ry="0.28"></ellipse><path class="cls-2" d="M254.26,62.3s1.2,17.73,0,22-4,10.84-4,13.1a27.94,27.94,0,0,1-1.32,8.82,1.14,1.14,0,0,1-1.26.74l-1.42-.25a1.12,1.12,0,0,1-.93-1.11v-2.17a.89.89,0,0,0-1.08-.86h0L246,98.61l3.2-24.2-3.86-8.16S251.52,65.26,254.26,62.3Z"></path><path class="cls-8" d="M245.36,66.25l3.86,8.16L246.37,96l3.88,1.35,3.21-9.29a32,32,0,0,0,1.68-12.55l-.88-13.21Z"></path><path class="cls-8" d="M243.29,45s-5.95,1.72-6.54,2.53l-.5,2.36S243,47,245,46.8Z"></path><path class="cls-9" d="M236.25,49.86A167.37,167.37,0,0,0,231,83.29"></path><polygon class="cls-8" points="236 49.35 235.15 47.42 234.18 47.86 233.64 50.87 234.49 52.61 236 49.35"></polygon><polygon class="cls-9" points="241.55 65.48 237.2 64 237.56 57.71 241.92 59.08 241.55 65.48"></polygon><line class="cls-9" x1="237.48" y1="58.96" x2="241.92" y2="60.4"></line><path class="cls-3" d="M170.51,30.18a2.11,2.11,0,0,0,1.35-.51,3.44,3.44,0,0,0-.93-5.86,24.32,24.32,0,0,0-8.66-2,6.53,6.53,0,0,0-6.55,5s-3.79,2.17-1.83,7,4.37,5.88,4.67,8.61,8.55-9.51,8.55-9.51Z"></path><path class="cls-2" d="M170.51,30.18s1.84,5.09,2.1,6.11-2.1.9-2.1.9,2,6.5-4.71,6.75v5.87s-6.54.76-9-3.32a10.79,10.79,0,0,0,2-6.47c-.26-3.47-1.17-5.64.79-6.27s1.44,2.67,2.62,2.54,0-3.56,1.57-4.2S168.68,31.58,170.51,30.18Z"></path><path class="cls-8" d="M174.18,56.82,168.68,62,165.8,49.81S172.74,54.52,174.18,56.82Z"></path><path class="cls-4" d="M167.75,39.18a4.77,4.77,0,0,0,2.9,1.32"></path><path class="cls-4" d="M166.75,33.88a5.3,5.3,0,0,1,2.7,0"></path><path class="cls-8" d="M156.77,46.49s-7.59,1.66-10.08,15.81c0,0,1.7,4,8.9,4,0,0-3,7-3.86,8.16L153.33,87s16.57,2.29,19.3-1.53c0,0-2.38-23.2-2.64-24.73,0,0,.55-6.94-3.07-10.17a5.64,5.64,0,0,0-1.12-.79A30.1,30.1,0,0,0,156.77,46.49Z"></path><ellipse class="cls-4" cx="168.1" cy="34.62" rx="0.29" ry="0.28"></ellipse><path class="cls-8" d="M165.8,49.81s8.43,2.1,9.21,10.59l-7.66,2.83Z"></path><path class="cls-8" d="M226.77,56.82s-.71,1.19-2.24,6.41,6.43,6,6.43,6l1.53-9.59Z"></path><path class="cls-2" d="M107.58,59.25c0-.23-7.71-3.32-7.71-3.32S99,72.67,99.53,75.3,103.46,92,103.46,92s-.79,4.6,2.77,4.6,1.35-2.19,1.35-2.19,1.93.91,2.21.16-1.85-1.29-2.63-3.1-3-14.17-2.92-17.79S107.58,59.25,107.58,59.25Z"></path><path class="cls-2" d="M130.77,76.49s-4.3-2.6-5.63-2.27-4.23,1.59-4,2.36,3.54,1.29,4.12,1.2a2.86,2.86,0,0,1,1.91.35c.39.33,3.44.45,3.81-.44S130.77,76.49,130.77,76.49Z"></path><path class="cls-7" d="M141.06,68.71l-10.45,10-2.8-4,8.41-10.07c-1.52-3.51-6.63-8.14-6.63-8.14-.35-2,0-.19,0,0l-3.2,16.37H108.71l-3.2-13.78c-.05-.19,1.92,3.94,1.88,4.12h0c-.77,3.41-3.3,7.45-2.47,10.77a16,16,0,0,1,.44,2.47l1.15,12.68-4.07,1.36-3.1-13.38C98.14,75,97.93,64.46,98.44,62l2.73-12.87a6.4,6.4,0,0,1,5.53-5l.3,0a31,31,0,0,1,7.27,0l.74.1a20.56,20.56,0,0,0,5.08,0l.74-.1a31,31,0,0,1,7.27,0l.3,0a6.38,6.38,0,0,1,4.93,3.36c.77,1.43,1.49,2.88,2.37,4.25,2,3.12,5.16,8.42,6.43,12.76A4.18,4.18,0,0,1,141.06,68.71Z"></path><rect class="cls-10" x="38.22" y="81.29" width="31.66" height="20.74" rx="2.19" transform="translate(-19.59 14.85) rotate(-13.27)"></rect><path class="cls-2" d="M57.05,66.09c0-.23-7.71-3.32-7.71-3.32S48.43,79.51,49,82.15s3.93,16.74,3.93,16.74-.79,4.59,2.77,4.59,1.35-2.18,1.35-2.18,1.93.9,2.21.15-1.85-1.28-2.64-3.09-3-14.18-2.92-17.79S57.05,66.09,57.05,66.09Z"></path><circle class="cls-3" cx="157.85" cy="25.89" r="2.34"></circle><circle class="cls-3" cx="159.66" cy="23.84" r="2.34"></circle><circle class="cls-3" cx="162.87" cy="23" r="2.34"></circle><circle class="cls-3" cx="165.56" cy="23.55" r="2.34"></circle><circle class="cls-3" cx="168.93" cy="25.01" r="2.68"></circle><circle class="cls-3" cx="155.52" cy="28.99" r="2.34"></circle><circle class="cls-3" cx="153.98" cy="31.04" r="1.3"></circle><circle class="cls-3" cx="154.48" cy="32.85" r="1.3"></circle></svg>