<svg xmlns="http://www.w3.org/2000/svg" width="600.501" height="645.075" viewBox="0 0 600.501 645.075" role="img"><title></title>
  <g id="illo" transform="translate(-629 -192.37)">
    <g id="scene" transform="translate(629 192.37)">
      <g id="woman" transform="translate(325.521 3.373)">
        <path id="shadow" d="M136.608,29.183c75.447,0,136.608-6.533,136.608-14.591S212.055,0,136.608,0,0,6.533,0,14.591,61.162,29.183,136.608,29.183Z" transform="translate(0 577.526)" fill="#eaf8ff"></path>
        <g id="head" transform="translate(159.306)">
          <path id="Path_28" data-name="Path 28" d="M774.328,200.337s-8.057,20.667-11.95,25.442c-2.3,2.825,4.631,3.976,4.427,5.223a48.692,48.692,0,0,0-.869,7.581c0,2.344,3.478,3.2,3.478,3.2s-3.381.936-3.246,1.765c.581,3.565,2.126,6.17,4.7,9.406,4.716,5.922,11.546,7.761,18.071,7.378,1.55-.091-2.063,18.906-5.528,22.814s23.43,3.908,23.43,3.908l7.8-11.948V221.718Z" transform="translate(-761.908 -174.649)" fill="#e8b78b"></path>
          <path id="Path_49" data-name="Path 49" d="M0,1A8.868,8.868,0,0,0,6.815,1" transform="translate(5.559 65.631)" fill="#fff"></path>
          <path id="Path_49_-_Contour" data-name="Path 49 - Contour" d="M3.354,2.174A8.571,8.571,0,0,1-.223,1.447.5.5,0,0,1-.447.777.5.5,0,0,1,.222.552h0A7,7,0,0,0,2.1,1.078,8.669,8.669,0,0,0,6.63.535.5.5,0,1,1,7,1.465,9.82,9.82,0,0,1,3.354,2.174Z" transform="translate(5.559 65.631)" fill="#a87649"></path>
          <path id="Path_49-2" data-name="Path 49" d="M771.018,206.316a4.471,4.471,0,0,1-5.4-1.013" transform="translate(-752.073 -161.5)" fill="#fff"></path>
          <path id="Path_49_-_Contour-2" data-name="Path 49 - Contour" d="M769,207.31a5.216,5.216,0,0,1-3.729-1.652.5.5,0,0,1,.7-.711,3.992,3.992,0,0,0,4.788.939.5.5,0,0,1,.511.859,4.736,4.736,0,0,1-1.916.551C769.245,207.305,769.125,207.31,769,207.31Z" transform="translate(-752.073 -161.5)" fill="#a87649"></path>
          <path id="Combined_Shape" data-name="Combined Shape" d="M768.888,227.583s-12.877-15.1-2-25.07a22.842,22.842,0,0,1,16.608-6.5c9.777,0,21.718-4.18,32.528-2.183,10.525,1.945,35.419,18.018,27.436,45.433s-31.944,38.213-31.944,38.213-2.074,2.9,0-10.8-10.6-18.106-19.463-24.735c-4.413-3.3-17.993-15.323-17.993-23.184C774.056,217.987,768.888,227.583,768.888,227.583Z" transform="translate(-760.284 -193.295)" fill="#001345"></path>
          <path id="Oval_2" data-name="Oval 2" d="M21.079,42.791A21.239,21.239,0,0,0,42.159,21.4,21.239,21.239,0,0,0,21.079,0,21.239,21.239,0,0,0,0,21.4,21.239,21.239,0,0,0,21.079,42.791Z" transform="translate(64.129 2.838)" fill="#001345"></path>
        </g>
        <g id="body" transform="translate(48.388 99.574)">
          <g id="legs" transform="translate(54.945 256.712)">
            <path id="shape" d="M11.91,25.3a36.384,36.384,0,0,1-2,7.442C8.548,35.968,0,53.016,0,53.016s20.956,8.051,31.415-3.685C37.609,44.66,33.959,9.376,34.7,0" transform="matrix(1, -0.018, 0.017, 1, 0, 182.656)" fill="#1389bf"></path>
            <path id="shape-2" data-name="shape" d="M8.085,25.32A76.78,76.78,0,0,1,6.313,35.912C4.926,41.684,0,59.694,0,59.694S16.475,63.6,29.749,52.211C35.907,47.539,31.8,8.251,32.147,0" transform="matrix(1, -0.018, 0.017, 1, 76.198, 182.433)" fill="#1389bf"></path>
            <path id="shape-3" data-name="shape" d="M5.531,21.519S4.145,98.945,4.145,110.184,1.774,210.231.131,218.094c-1.485,7.108,9.939,15.252,18.759-6.752,5.141-12.826,7.657-59.41,12.548-104.655,3.5-32.377,9.45-66.8,12.776-75.119,7.974-19.953,9.8-5.5,9.8-5.5s5.933-4.889,7.331,2.962c6.02,33.8,7.207,74.146,8.736,83.134,2.826,16.614,3.151,94.952,2.6,105.735s12.656,11.8,20.19-7.8,7.267-84.829,5.551-109.167S103.835,13.377,103.556,0" transform="matrix(1, -0.018, 0.017, 1, 8.571, 1.863)" fill="#e8b78b"></path>
          </g>
          <path id="shape-4" data-name="shape" d="M92.609,27.236,33.959,17.564S21.032-1.621,17.447.121s0,10.834,0,10.834S1.7,9.074.551,10.955.464,17.346.464,17.346s-.382,6.376,2.856,9.89,12.066.711,21.25,2.837S92.609,54.764,92.609,54.764" transform="translate(-0.017 46.15)" fill="#e8b78b"></path>
          <path id="shape-5" data-name="shape" d="M100.175,70.6c9.256-2.633,29.334-11.884,29.334-11.884,1.894-50.2-15.873-56.736-15.873-56.736s-9.336-4.314-17,0C90.716,5.316,86.485,7.289,75.8,7.733l1.162-5.75S41.289,35.993,33.6,51.757s-6.015,51.557-4.971,63.623-7.49,36.28-14.264,63.381S.885,247.939,0,290.98c0,0,60.274,16.289,117.175-4.209,0,0,6.56-69.263-5.925-105.169-4.218-12.131,2.042-25.755,2.532-36.275.477-10.239,0-26.128,0-26.128Z" transform="translate(60.07 -0.066)" fill="#001345"></path>
          <path id="shape-6" data-name="shape" d="M55.994,82.795,10.486,88.22A3,3,0,0,1,7.152,85.6L5.691,73.338.868,72.431,3.648,56.2-.863,18.358A3,3,0,0,1,1.76,15.025l9.13-1.088L13.279,0,57.712,8.355,97.865,3.569A3,3,0,0,1,101.2,6.192l1.261,10.576,8.727,1.641-5.031,29.363,3.059,25.658a3,3,0,0,1-2.624,3.334l-5.516.657-2.3,13.417Z" transform="translate(114.905 128.432)" fill="#cef"></path>
          <path id="shape_-_Contour" data-name="shape - Contour" d="M98.776,91.338a.5.5,0,0,1-.092-.009L55.978,83.3,10.545,88.716a3.541,3.541,0,0,1-.418.025,3.5,3.5,0,0,1-3.471-3.086L5.238,73.761.775,72.922a.5.5,0,0,1-.4-.576L3.143,56.19l-4.5-37.773A3.5,3.5,0,0,1,1.7,14.528l8.76-1.044L12.786-.084a.5.5,0,0,1,.207-.326.5.5,0,0,1,.378-.081l44.358,8.34L97.806,3.072a3.547,3.547,0,0,1,.418-.025A3.5,3.5,0,0,1,101.7,6.133l1.217,10.211,8.367,1.573a.5.5,0,0,1,.4.576L106.66,47.785l3.05,25.586a3.5,3.5,0,0,1-3.061,3.889l-5.145.613L99.269,90.922a.5.5,0,0,1-.493.416ZM55.994,82.295a.5.5,0,0,1,.092.009l42.282,7.949,2.213-12.916a.5.5,0,0,1,.434-.412l5.516-.658a2.5,2.5,0,0,0,2.186-2.778l-3.059-25.658a.5.5,0,0,1,0-.144l4.948-28.878-8.244-1.55a.5.5,0,0,1-.4-.432L100.7,6.251a2.5,2.5,0,0,0-2.478-2.2,2.541,2.541,0,0,0-.3.018L57.772,8.851a.5.5,0,0,1-.152-.005L13.686.586l-2.3,13.434a.5.5,0,0,1-.434.412L1.82,15.521A2.5,2.5,0,0,0-.367,18.3L4.145,56.144a.5.5,0,0,1,0,.144l-2.7,15.743,4.34.816a.5.5,0,0,1,.4.432L7.649,85.537a2.5,2.5,0,0,0,2.478,2.2,2.54,2.54,0,0,0,.3-.018L55.935,82.3A.5.5,0,0,1,55.994,82.295Z" transform="translate(114.905 128.432)" fill="#cef"></path>
          <rect id="shape-7" data-name="shape" width="102.785" height="73.714" rx="3" transform="translate(113.687 143.812) rotate(-6.798)" fill="#fff"></rect>
          <path id="shape-8" data-name="shape" d="M40.378,0c4.016,41.6,6.065,57.055,3.907,72.709-1.385,10.046-12.614,57.07-16.5,69.545-.7,2.236,3.546,18.881-10.035,18.881s-10.645.823-9.138-8.68c.162-1.023-9.02,1.662-8.6,0,.323-1.273,5.1-6.182,10.651-10.2,4.307-15.68,12.655-56.194,12.655-73.6,0-9.7-10-51.569-13.224-57.777" transform="translate(147.512 60.005)" fill="#e8b78b"></path>
        </g>
      </g>
      <g id="man">
        <path id="shadow-2" data-name="shadow" d="M134.459,40.126c77.006,0,138-8.983,138-20.063S211.465,0,134.459,0C60.991,0,0,8.983,0,20.063S60.991,40.126,134.459,40.126Z" transform="translate(0 604.949)" fill="#eaf8ff"></path>
        <g id="man-2" data-name="man" transform="translate(103.363)">
          <g id="body-2" data-name="body" transform="translate(0 105.165)">
            <path id="shape-9" data-name="shape" d="M45.171.941c19.57,1.61,35.805,8.823,35.954,19.387,0,5.615-24.949,3.357-33.746,3.357,0,0,13.346,2.758,13.346,12.173,0,2.027-4.457,4.739-13.346,4.739-12.8,0-33.914-2.158-39.01-3.523C1.012,35.1-.693,24.445.228,11.346S25.546-.674,45.171.941Z" transform="translate(25.451 493.17)" fill="#2aa5df"></path>
            <path id="shape-10" data-name="shape" d="M23.751.131C39.308,14.826,58.91,40.959,69.686,40.959c5,0,48.531-2.894,59.1-10.191,3.331-2.3,5.5-11.1,8.58-11.913,3.038-.8,3.548,4.649,6.267,4.771,5.3.239,11.2-.115,12.485,0,7.21.645,1.842,17.333,1.842,17.333s-21.842,6.505-29.174,9.9S78.315,69.289,58.91,66.074c-15.17-1.253-48.094-32.35-48.094-32.35L0,10.959S22.2-1.338,23.751.131Z" transform="translate(92.614 50.571)" fill="#e8b78b"></path>
            <path id="shape-11" data-name="shape" d="M86.51,0s-2.6,105.763-11.064,153.511S54.681,300.618,56.118,315.333a21.366,21.366,0,0,1-18.849,9.217s-3.157,3.836-4.783,4.592c-7.576,3.523-15.724,3.073-24.409,2.768-2.073-.073-6.534-.436-6.534-.436s-.012-4.569-.018-6.89c-.061-25.076-.092-45.682-.092-76.41C1.434,197.815,0,102.481,0,88.012,0,84.45,3.135,5.54,3.135,5.54Z" transform="translate(24.099 180.24)" fill="#2aa5df"></path>
            <path id="shape-12" data-name="shape" d="M0,0S31.215,23.494,39.351,39.687L23.685,58.74,0,56.865Z" transform="translate(79.393 7.879)" fill="#fff"></path>
            <path id="shape-13" data-name="shape" d="M.016,77.058C1.417,66.066,3.4,32.553,12.633,18.1S43.107,0,52.788,0,59.5,14.82,73.426,16.412a7.531,7.531,0,0,0,5.436-1.548V6.73S87.89,17.554,88.182,18.1Q101.353,42.7,103,80.665c1.7,39.227,7.136,93.171,8.073,97.311,0,0-29.824,8.041-91.031,6.941,0,0-3.1-34-3.1-43.5s3.1-49.183,3.1-49.183A207.491,207.491,0,0,0,3.064,80.113C3.356,77.685-.268,79.281.016,77.058Z" transform="translate(0)" fill="#fff"></path>
            <path id="shape-14" data-name="shape" d="M5.7,29.777a.5.5,0,0,1-.5-.5,79.137,79.137,0,0,0-.711-9.1A87.576,87.576,0,0,0-.466.181.5.5,0,0,1-.181-.466a.5.5,0,0,1,.647.284A88.6,88.6,0,0,1,5.485,20.064,80.078,80.078,0,0,1,6.2,29.277.5.5,0,0,1,5.7,29.777Z" transform="translate(95.962 35.826)" fill="#cef"></path>
            <path id="shape-15" data-name="shape" d="M35.921,15.2Q32.4,30.856,23.3,50.926s-3.129,8.188,0,29.046,7.617,52.782,7.617,69.47c0,3.81,9.606,14.1,9.9,18.1.274,3.727-8.784,1.15-8.256,5.04.56,4.125,2.111,12.651,2.111,12.651s1.208,7.542-14.75,5.24c0,0-5.66-19.911-5.66-25.994s-3.179-33.087-5.137-37.626C7.89,123.98.5,102.765.5,63.9.5,44.5-1.152,22.02,1.554,4.616,1.933,2.181,32.565,0,32.565,0S36.508,12.6,35.921,15.2Z" transform="translate(1.965 76.147)" fill="#e8b78b"></path>
            <path id="shape-16" data-name="shape" d="M47.6,0s-2.73,26.393-7.574,31.472c0,0-31.624-.494-40.027-13.574" transform="translate(2.346 59.295)" fill="#fff"></path>
            <path id="shape_-_Contour-2" data-name="shape - Contour" d="M40.027,31.972h-.008a108.4,108.4,0,0,1-16.951-1.891A61.519,61.519,0,0,1,9.593,25.992C4.918,23.867,1.549,21.234-.421,18.168a.5.5,0,0,1,.15-.691.5.5,0,0,1,.691.15C4.665,24.234,15.176,27.511,23.247,29.1a108.21,108.21,0,0,0,16.564,1.87c1.863-2.152,3.7-8.094,5.328-17.223C46.409,6.611,47.1.014,47.1-.051A.5.5,0,0,1,47.653-.5.5.5,0,0,1,48.1.051c-.007.066-.7,6.7-1.976,13.868-1.727,9.7-3.656,15.719-5.734,17.9A.5.5,0,0,1,40.027,31.972Z" transform="translate(2.346 59.295)" fill="#cef"></path>
          </g>
          <g id="head-2" data-name="head" transform="translate(31.3)">
            <path id="shape-17" data-name="shape" d="M0,86.444S7.25,80.9,7.25,53.79C7.25,49.219.032,44.016,0,38.158-.042,30.38,7.25,11.4,7.25,11.4L54.967,0s3.873,19.083,6.26,26.069,5.52,15.65,5.563,16.76c.063,1.638-5.554,2.793-5.563,4.333-.135,21.743-8.964,26.812-23.621,28.93v25.469s-11.175,2.089-20.766-2.032S0,86.444,0,86.444Z" transform="translate(14.661 21.651)" fill="#e8b78b"></path>
            <path id="shape-18" data-name="shape" d="M7.789,4.155A10.436,10.436,0,0,1,1.461,2.229,7.229,7.229,0,0,1-.434.248.5.5,0,0,1-.248-.434.5.5,0,0,1,.433-.25h0A6.418,6.418,0,0,0,2.1,1.456a9.436,9.436,0,0,0,5.691,1.7.5.5,0,1,1,0,1Z" transform="translate(65.08 75.768)" fill="#a87649"></path>
            <path id="shape-19" data-name="shape" d="M689.786,207.409a.5.5,0,0,1-.261-.074c-2.9-1.783-6.791.008-6.83.026a.5.5,0,0,1-.427-.9c.179-.084,4.416-2.043,7.781.026a.5.5,0,0,1-.262.926Z" transform="translate(-622.054 -156.172)" fill="#a87649"></path>
            <path id="shape-20" data-name="shape" d="M14.706,75.79C5.707,64.7-1.952,55.481.444,34.131c.9-8.05,8.647-11.612,8.647-11.612V19.364C9.092,7.772,23.977.657,41.807.024,50.8-.3,60.656,2.7,68.521,5.805c7.5,2.955,15.158,8.424,19.357,9.9.525,4.143-1.037,10.63-3.188,13.73-6.064,8.746-7.511,9.544-25.444,12.459A116.482,116.482,0,0,0,42.886,45.78c-6.768,3.357-1.213,17.445-5.882,18.4-2.262.463-3.267-2.049-4.639-4.56-1.579-2.886-3.641-5.775-8.648-4.14-1.536.5-3.148,3.536-3.463,5.581,0,5.072,2.955,10.824,2.955,10.824l-1.75,18.963S17.68,79.457,14.706,75.79Z" fill="#001345"></path>
          </g>
        </g>
      </g>
    </g>
  </g>
</svg>