<svg xmlns="http://www.w3.org/2000/svg" width="599.999" height="572.558" viewBox="0 0 599.999 572.558" role="img"><title></title>
  <g id="illo" transform="translate(-994 -179)">
    <g id="scene" transform="translate(994 179)">
      <path id="shadow" d="M93.788,23.5c51.8,0,93.788-5.261,93.788-11.75S145.586,0,93.788,0,0,5.261,0,11.75,41.99,23.5,93.788,23.5Z" transform="translate(85.913 549.057)" fill="#bbe8ff"></path>
      <g id="woman" transform="translate(129.624 87.649)">
        <g id="woman-2" data-name="woman">
          <g id="head">
            <path id="Path_51" data-name="Path 51" d="M33.971.791S31.06,14.705,16.264,24.743c-5.492,3.726-5.715,9.426-4.8,17.779,2.28,20.849,10.06,24.362,10.06,24.362L6,63.371,0,24.743,29.141,0Z" transform="translate(38.823 21.144)" fill="none"></path>
            <path id="Path_28" data-name="Path 28" d="M1084.831,215.883s6.346,16.634,9.416,20.476c1.816,2.273-3.655,3.2-3.5,4.207a39.97,39.97,0,0,1,.682,6.1c0,1.887-2.746,2.579-2.746,2.579s2.667.752,2.56,1.419c-.46,2.87-1.681,4.969-3.715,7.575-3.75,4.8-9.191,6.276-14.373,5.942-1.185-.076,9.15,24.038,9.15,24.038l-26.65-4.737-3.432-25.219,3.468-33.9Z" transform="translate(-1010.801 -195.186)" fill="#e8b78b"></path>
            <path id="Path_49" data-name="Path 49" d="M0,.54a6.863,6.863,0,0,1,5.375,0" transform="translate(79.444 54.198) rotate(180)" fill="#fff"></path>
            <path id="Path_49_-_Contour" data-name="Path 49 - Contour" d="M5.374,1.04A.5.5,0,0,1,5.187,1,6.439,6.439,0,0,0,.226.986.5.5,0,0,1-.445.765.5.5,0,0,1-.227.095,7.324,7.324,0,0,1,5.563.077a.5.5,0,0,1-.188.963Z" transform="translate(79.444 54.198) rotate(180)" fill="#a87649"></path>
            <path id="Path_49-2" data-name="Path 49" d="M1061.485,221.744a10.442,10.442,0,0,1,3.624-.838" transform="translate(-992.865 -185.471)" fill="#fff"></path>
            <path id="Path_49_-_Contour-2" data-name="Path 49 - Contour" d="M1061.485,222.245a.5.5,0,0,1-.193-.961,10.762,10.762,0,0,1,3.86-.875.5.5,0,1,1-.086,1,9.636,9.636,0,0,0-3.388.8A.5.5,0,0,1,1061.485,222.245Z" transform="translate(-992.865 -185.471)" fill="#a87649"></path>
            <path id="Combined_Shape" data-name="Combined Shape" d="M1103.95,236.45s10.156-12.16,1.58-20.189a17.82,17.82,0,0,0-13.1-5.23c-7.711,0-17.129-3.366-25.655-1.758-8.3,1.566-27.934,14.51-21.638,36.587a51.037,51.037,0,0,0,25.194,30.773s1.636,2.338,0-8.7,8.362-14.581,15.35-19.919c3.48-2.658,14.191-12.339,14.191-18.67C1099.875,228.722,1103.95,236.45,1103.95,236.45Z" transform="translate(-1026.908 -208.837)" fill="#001345"></path>
            <path id="Oval_2" data-name="Oval 2" d="M16.625,0C25.807,0,33.25,7.714,33.25,17.23S25.807,34.46,16.625,34.46,0,26.746,0,17.23,7.443,0,16.625,0Z" transform="translate(33.25 36.745) rotate(180)" fill="#001345"></path>
          </g>
          <g id="body" transform="translate(20.086 77.965)">
            <g id="legs" transform="translate(10.558 204.795)">
              <path id="shape" d="M1087.063,377.105a29.919,29.919,0,0,0,1.274,6.072c.946,2.65,7,16.734,7,16.734s-16.826,5.565-24.592-4.328c-4.691-4.027-.4-32.246-.615-39.82" transform="translate(-1009.848 -206.919)" fill="#1389bf"></path>
              <path id="shape-2" data-name="shape" d="M1068.729,376.4a63.172,63.172,0,0,0,.971,8.6c.861,4.7,4.019,19.4,4.019,19.4s-13.131,2.428-23.128-7.31c-4.662-4.025.143-35.445.2-42.1" transform="translate(-1048.558 -208.42)" fill="#1389bf"></path>
              <path id="shape-3" data-name="shape" d="M1128.207,326.659s-2.009,62.333-2.458,71.372-2.139,80.569-1.16,86.964c.885,5.782-8.438,11.835-14.5-6.246-3.535-10.539-3.651-48.115-5.691-84.718-1.46-26.192-4.767-54.134-7.053-60.972-5.481-16.394-7.5-4.847-7.5-4.847s-1.687-4.087-3.1,2.167c-6.094,26.921-11.434,59.219-13,66.381-2.891,13.24-6.283,76.231-6.283,84.928s-10.439,8.942-15.588-7.15-2.326-68.543,0-88.042-.755-70.657,0-81.4" transform="translate(-1047.746 -305.094)" fill="#e8b78b"></path>
            </g>
            <path id="Path_26" data-name="Path 26" d="M75.409,19.542l-41.991,6.6S23.222,41.589,20.4,40.186s0-8.725,0-8.725-15.211,1.515-16.117,0A69.438,69.438,0,0,1,1.419,24.4s-3.194-6.113,0-8.984,14.559-.572,21.8-2.284S71.461,0,71.461,0" transform="translate(153.256 77.856) rotate(180)" fill="#e8b78b"></path>
            <path id="Path_24" data-name="Path 24" d="M1072.047,290.371c-6.949-4.639-25.3-14.265-25.3-14.265,1.656-23.685,8.283-33.579,21.8-40.729.692.047,2.272,4.685,2.272,4.685a27.639,27.639,0,0,0,10.021,4.1c3.485.744,6.206,1.591,10.886,1.591,1.111,0,.417-4.81,1.631-4.81.129,0,12.074,9.435,19.453,18.85,6.8,8.673,8.746,13.585,11.346,19.824,5.422,13.011,3.2,40.043,1.893,49.7s5.524,30.249,9.775,52.338,8.631,52.32,7.6,86.971c0,0-36.021,16.651-98.312,5.588,0,0-2.4-44.212,12.373-105.751,6.855-28.558,1.984-29.485,5.861-53.162C1066.56,295.719,1072.047,290.371,1072.047,290.371Z" transform="translate(-1044.942 -235.378)" fill="#001345"></path>
            <path id="Rectangle_3" data-name="Rectangle 3" d="M1126.356,329.267l2.313-92.555-45.854,5.717-4.178,79.954Z" transform="translate(-979.717 -232.792)" fill="#fff"></path>
            <path id="Rectangle_3_-_Contour" data-name="Rectangle 3 - Contour" d="M1125.385,328.117l2.256-90.268-43.87,5.47-4.087,78.206,45.7,6.593m.972,1.151-47.719-6.884,4.178-79.954,45.854-5.717Z" transform="translate(-979.717 -232.792)" fill="#cef"></path>
            <path id="Path_25" data-name="Path 25" d="M86,83.382c4.063-27.059,7-51.94,4.063-61.222C85.038,6.3,27.453,1.066,21.98.315a41.452,41.452,0,0,0-15.7,1.091C-1.8,3.715-1.723,19.194,4.45,17.94c.884-.18,9.732-5.221,9.732-5.221,3.117,7.946,7.217-.877,7.217-.877,29.481,6.1,50.052,17.522,50.052,17.522L63.589,74.008Z" transform="translate(91.258 125.996) rotate(180)" fill="#e8b78b"></path>
            <path id="Path_29" data-name="Path 29" d="M0,1.883a.5.5,0,0,1-.5-.466A.5.5,0,0,1-.034.884L20.474-.5a.5.5,0,0,1,.533.465A.5.5,0,0,1,20.541.5L.034,1.882Z" transform="translate(134.113 23.696) rotate(180)" fill="#73d2ff"></path>
          </g>
        </g>
      </g>
      <path id="shadow-2" data-name="shadow" d="M107.741,23.5c59.5,0,107.741-5.261,107.741-11.75S167.245,0,107.741,0,0,5.261,0,11.75,48.237,23.5,107.741,23.5Z" transform="translate(311.959 522.619)" fill="#bbe8ff"></path>
      <g id="man" transform="translate(352.552 52.127)">
        <g id="head-2" data-name="head" transform="translate(94.937 14.417)">
          <path id="shape-4" data-name="shape" d="M11.612,2.566S2.689,16.986.064,23.8c-.6,1.569,3.642,5.291,3.642,5.291-2.609,9.263-4.059,15.264,0,18.794Q8.837,52.35,17.265,52.1V69.168l22.58,1.141V48.678L57.819,17.1,17.265,0Z" transform="translate(-0.006 16.861)" fill="#edbe95"></path>
          <path id="shape-5" data-name="shape" d="M1154.832,213.934a.5.5,0,0,1-.2-.042c-.932-.406-3.114-1.355-3.943-.441a.5.5,0,0,1-.741-.672c1.312-1.446,3.859-.337,5.083.2a.5.5,0,0,1-.2.959Z" transform="translate(-1138.609 -180.5)" fill="#a87649"></path>
          <path id="shape-6" data-name="shape" d="M31.615,69.334q-2.5-1.925-.494-7.556c1.669-4.679,5.288-6.811,6.792-9.847a1.658,1.658,0,0,1,.1-.5,6.4,6.4,0,0,0-3.6-7.939c-4.85-1.437-3.371,2.673-6.578,3.882s-3.91,1.906-3.137-3.882c.626-4.685,5.991-5.846,3.137-8.823,13.547-9.211-7.847-11.508-11.22-12.483C-8.528,14.914,1.432,8.819,4.769,4.516,8.879-.784,16.2.047,22.86.047c20.283,0,28.758,7.23,33.908,15.177a26.138,26.138,0,0,1,.141,28q-5.791,9.142-8.336,12.616a5.136,5.136,0,0,1-1.265,1.328A30.975,30.975,0,0,1,31.615,69.334Z" transform="translate(7.089 0)" fill="#f3e6a7"></path>
          <path id="shape-7" data-name="shape" d="M6.509,2.945a20.95,20.95,0,0,1-6.7-1.482A.5.5,0,0,1-.463.811.5.5,0,0,1,.189.537C.249.562,5.7,2.754,8.468,1.631a.5.5,0,0,1,.376.927A6.263,6.263,0,0,1,6.509,2.945Z" transform="translate(2.104 50.451)" fill="#a87649"></path>
        </g>
        <g id="body-2" data-name="body">
          <path id="shape-8" data-name="shape" d="M34.594,8.915S0,11.21,0,24.55c0,7.791,27.6,11.195,34.594,8.629,11.528-4.23,34.618,5.889,31.753-19.985S34.594,8.915,34.594,8.915Z" transform="translate(64.065 454.141)" fill="#001345"></path>
          <path id="shape-9" data-name="shape" d="M62.727,0s2.039,27.236,2.309,50.14c.008.644,3.815,112.308,3.815,133.837S66,255.2,66,255.2s-10.766,1.466-18.623,0l-5.087,1.485S18.245,260.52,18.245,255.2c0-25.032-8.35-76.8-11.366-104.48C1.459,100.956-1.88,43.007,1.143,3.063" transform="translate(64.151 219.123)" fill="#001345"></path>
          <path id="shape-10" data-name="shape" d="M54.972,68.759S20.61,33.051,19.544,28.518,21.234,0,14.939,0,0,23.538,0,23.538L31.721,72.6" transform="translate(20.552 34.036)" fill="#e8b78b"></path>
          <path id="shape-11" data-name="shape" d="M1118.186,196.745l27.718,4.731-2.545,51.093-27.718-4.731Z" transform="translate(-1110.862 -196.745)" fill="#cef"></path>
          <path id="shape-12" data-name="shape" d="M1118.95,199.858l19.452,2.852-1.414,31.322-19.452-2.852Z" transform="translate(-1107.189 -190.713)" fill="#fff"></path>
          <path id="shape-13" data-name="shape" d="M49.464,74.106s-19.107-.539-23.339-6.288c-3.4-4.621-11.419-28.4-13.517-43.167-.332-2.334,6.378-4.978,5.249-8.316s-5.249-2.306-5.249-3.057C12.607,5.187,14.293-1.2,7.491.19S0,7.294,0,17.265,4.448,80.928,17.856,88.593s29.37,9.794,41.2,9.794" transform="translate(0 33.224)" fill="#e8b78b"></path>
          <path id="shape-14" data-name="shape" d="M32.406,37.2c-3.548,8.943-12.559,34.971-17.425,75.636-.578,4.827-1.867,21.1,0,20.274,5.485-2.423,21.613-7.748,41.012-9.3,12.239-.98,21.486,1.357,21.486,0s4.24-31.437,9.216-51.637C97.86,26.854,97.86,7.331,97.86,7.331S78.337,0,65.155,0,0,7.331,0,7.331,5.506,37.86,10.126,38.148" transform="translate(50.196 97.072)" fill="#2aa5df"></path>
          <path id="shape-15" data-name="shape" d="M15.749,11.646a.5.5,0,0,1-.5-.567c.511-3.774.19-6.581-.955-8.345C13.355,1.281,10.627.529,6.408.558a45.2,45.2,0,0,0-6.325.53A.5.5,0,0,1-.493.678.5.5,0,0,1-.083.1,45.4,45.4,0,0,1,6.4-.442c4.643-.032,7.582.853,8.735,2.631A8.833,8.833,0,0,1,16.384,5.98a21.134,21.134,0,0,1-.141,5.233A.5.5,0,0,1,15.749,11.646Z" transform="translate(71.681 132.485)" fill="#1389bf"></path>
        </g>
      </g>
      <g id="chat">
        <g id="bubble" transform="translate(0 29.375)">
          <path id="bg" d="M120,47H3a3,3,0,0,1-3-3V3A3,3,0,0,1,3,0H142.117a3,3,0,0,1,3,3V44a3,3,0,0,1-3,3H131.163v11.75Z" fill="#ec4847"></path>
          <path id="_3_chambres" data-name="…3 chambres" d="M2.263,14.969A1.737,1.737,0,0,1,1,14.517a1.75,1.75,0,0,1,0-2.375,1.737,1.737,0,0,1,1.265-.452,1.75,1.75,0,0,1,1.274.452,1.75,1.75,0,0,1,0,2.375A1.75,1.75,0,0,1,2.263,14.969Zm5.1,0A1.737,1.737,0,0,1,6.1,14.517a1.75,1.75,0,0,1,0-2.375,1.737,1.737,0,0,1,1.265-.452,1.75,1.75,0,0,1,1.274.452,1.75,1.75,0,0,1,0,2.375A1.75,1.75,0,0,1,7.366,14.969Zm5.078,0a1.737,1.737,0,0,1-1.265-.452,1.75,1.75,0,0,1,0-2.375,1.737,1.737,0,0,1,1.265-.452,1.75,1.75,0,0,1,1.274.452,1.75,1.75,0,0,1,0,2.375A1.75,1.75,0,0,1,12.444,14.969Zm7.272-5.542V7.249H21.24a1.9,1.9,0,0,0,1.274-.409A1.356,1.356,0,0,0,23,5.752a1.311,1.311,0,0,0-.478-1.071,2,2,0,0,0-1.3-.392,1.93,1.93,0,0,0-1.317.443,1.561,1.561,0,0,0-.534,1.175H16.5a3.671,3.671,0,0,1,1.33-2.9,5.236,5.236,0,0,1,3.455-1.076,5.556,5.556,0,0,1,3.356.942A2.9,2.9,0,0,1,25.93,5.322a2.774,2.774,0,0,1-.65,1.842,2.829,2.829,0,0,1-1.7.972V8.3a3.215,3.215,0,0,1,2.044.925,2.738,2.738,0,0,1,.762,1.984,3.274,3.274,0,0,1-1.437,2.75,6.094,6.094,0,0,1-3.718,1.063,5.422,5.422,0,0,1-3.529-1.1A3.822,3.822,0,0,1,16.265,11h3.012a1.426,1.426,0,0,0,.572,1.123,2.309,2.309,0,0,0,1.433.409,2.076,2.076,0,0,0,1.368-.435,1.4,1.4,0,0,0,.525-1.132A1.366,1.366,0,0,0,22.66,9.84a2.214,2.214,0,0,0-1.42-.413Zm22-.775h-2.8A1.679,1.679,0,0,0,38.409,7.6a1.578,1.578,0,0,0-1.1-.374q-1.79,0-1.79,2.659,0,2.685,1.79,2.685a1.452,1.452,0,0,0,1.609-1.36h2.8a3.782,3.782,0,0,1-1.3,2.715,4.647,4.647,0,0,1-3.1.985A4.778,4.778,0,0,1,33.7,13.622a5.182,5.182,0,0,1-1.239-3.739A5.138,5.138,0,0,1,33.7,6.161a4.8,4.8,0,0,1,3.606-1.278,4.58,4.58,0,0,1,3.111,1A3.932,3.932,0,0,1,41.714,8.652Zm1.919,6.033V1.518h2.978V6.7h.164A2.6,2.6,0,0,1,47.85,5.4a3.308,3.308,0,0,1,1.79-.473,3.122,3.122,0,0,1,2.423.934,3.815,3.815,0,0,1,.856,2.672v6.153H49.881V9.22a2.03,2.03,0,0,0-.4-1.351A1.431,1.431,0,0,0,48.332,7.4a1.532,1.532,0,0,0-1.218.508,1.968,1.968,0,0,0-.443,1.343v5.43Zm15.293-1.979a1.813,1.813,0,0,0,1.218-.422,1.316,1.316,0,0,0,.495-1.041v-.628l-1.609.1a1.986,1.986,0,0,0-1.024.31.811.811,0,0,0-.353.688.862.862,0,0,0,.349.723A1.483,1.483,0,0,0,58.926,12.706Zm-1.11,2.126a3.161,3.161,0,0,1-2.242-.8,2.737,2.737,0,0,1-.856-2.1A2.43,2.43,0,0,1,55.7,9.878a5.192,5.192,0,0,1,2.844-.856l2.091-.12V8.153a.909.909,0,0,0-.349-.762,1.557,1.557,0,0,0-.977-.271q-1.213,0-1.515.775H55.062a2.8,2.8,0,0,1,1.291-2.2,5.468,5.468,0,0,1,3.133-.809,4.82,4.82,0,0,1,3.064.861,2.9,2.9,0,0,1,1.084,2.41v6.532H60.673V13.5H60.51a2.261,2.261,0,0,1-1.05.972A3.661,3.661,0,0,1,57.816,14.831Zm8.133-.146V5.106h2.961V6.69h.164a2.5,2.5,0,0,1,.99-1.321,2.866,2.866,0,0,1,1.652-.486,2.932,2.932,0,0,1,1.7.469,2.475,2.475,0,0,1,.955,1.338h.164a2.588,2.588,0,0,1,1.08-1.312A3.258,3.258,0,0,1,77.4,4.883a3,3,0,0,1,2.268.891,3.265,3.265,0,0,1,.856,2.362v6.549H77.489V8.91q0-1.541-1.386-1.541a1.308,1.308,0,0,0-1.028.43,1.645,1.645,0,0,0-.383,1.136v5.749H71.784V8.859a1.576,1.576,0,0,0-.353-1.106,1.473,1.473,0,0,0-2.048.065,1.7,1.7,0,0,0-.4,1.17v5.7Zm22.97.146a3.542,3.542,0,0,1-1.786-.435,2.565,2.565,0,0,1-1.106-1.209h-.164v1.5H82.9V1.518h3.038V6.647H86.1A2.675,2.675,0,0,1,87.193,5.4a3.28,3.28,0,0,1,1.726-.443,3.359,3.359,0,0,1,2.819,1.3,5.819,5.819,0,0,1,1,3.636,5.806,5.806,0,0,1-1.011,3.636A3.356,3.356,0,0,1,88.918,14.831ZM87.782,7.353a1.586,1.586,0,0,0-1.351.684A3.142,3.142,0,0,0,85.924,9.9a3.142,3.142,0,0,0,.5,1.859,1.586,1.586,0,0,0,1.355.68,1.564,1.564,0,0,0,1.343-.684,3.142,3.142,0,0,0,.491-1.863,3.105,3.105,0,0,0-.495-1.855A1.567,1.567,0,0,0,87.782,7.353Zm6.859,7.332V5.106H97.6V6.681h.164a2.151,2.151,0,0,1,.83-1.231,2.464,2.464,0,0,1,1.528-.491,3.027,3.027,0,0,1,1.1.146V7.7a3.69,3.69,0,0,0-1.308-.172,2.334,2.334,0,0,0-1.631.551,1.975,1.975,0,0,0-.607,1.541v5.069Zm12.3-7.642a1.659,1.659,0,0,0-1.231.486,1.979,1.979,0,0,0-.542,1.3h3.477a1.939,1.939,0,0,0-.486-1.308A1.6,1.6,0,0,0,106.94,7.043Zm1.816,4.819h2.78a3.278,3.278,0,0,1-1.48,2.225,5.447,5.447,0,0,1-3.09.822,4.726,4.726,0,0,1-3.55-1.3,5.02,5.02,0,0,1-1.261-3.653,5.23,5.23,0,0,1,1.269-3.722,5.233,5.233,0,0,1,6.941-.077A4.931,4.931,0,0,1,111.6,9.728v.843H105.15v.155a2.14,2.14,0,0,0,.525,1.48,1.8,1.8,0,0,0,1.377.542,2.365,2.365,0,0,0,1.106-.232A1.2,1.2,0,0,0,108.756,11.862Zm4.518-3.873a2.673,2.673,0,0,1,1.136-2.268,5.063,5.063,0,0,1,3.072-.839,5.279,5.279,0,0,1,3.059.753,2.731,2.731,0,0,1,1.158,2.2h-2.771a.93.93,0,0,0-.439-.658,2.125,2.125,0,0,0-1.949,0,.713.713,0,0,0-.374.624.591.591,0,0,0,.262.495,2.22,2.22,0,0,0,.839.314l1.979.4a4.172,4.172,0,0,1,2.061.925,2.273,2.273,0,0,1,.641,1.708,2.8,2.8,0,0,1-1.2,2.375,5.312,5.312,0,0,1-3.219.886,5.765,5.765,0,0,1-3.206-.762,2.807,2.807,0,0,1-1.278-2.207h2.935q.241.912,1.592.912a1.886,1.886,0,0,0,1-.232.7.7,0,0,0,.374-.62.576.576,0,0,0-.237-.482,2.114,2.114,0,0,0-.813-.3l-1.781-.379Q113.274,10.236,113.274,7.989Z" transform="translate(13.225 14.691)" fill="#fff"></path>
        </g>
        <g id="bubble-2" data-name="bubble" transform="translate(502.324)">
          <path id="bg-2" data-name="bg" d="M13.955,47H3a3,3,0,0,1-3-3V3A3,3,0,0,1,3,0H94.675a3,3,0,0,1,3,3V44a3,3,0,0,1-3,3H27.908L13.955,61.689Z" fill="#ec4847"></path>
          <path id="Parfait_" data-name="Parfait !" d="M.5,2.42H5.937a4.442,4.442,0,0,1,3.24,1.2,4.269,4.269,0,0,1,1.235,3.2A4.127,4.127,0,0,1,9.121,10a4.756,4.756,0,0,1-3.374,1.2H3.657v3.64H.5ZM3.657,4.847V8.814H5.085A2.26,2.26,0,0,0,6.66,8.306a1.886,1.886,0,0,0,.559-1.472,1.914,1.914,0,0,0-.551-1.48A2.228,2.228,0,0,0,5.1,4.847Zm12.169,8.012a1.813,1.813,0,0,0,1.218-.422,1.316,1.316,0,0,0,.495-1.041v-.628l-1.609.1a1.986,1.986,0,0,0-1.024.31.811.811,0,0,0-.353.688.862.862,0,0,0,.349.723A1.483,1.483,0,0,0,15.826,12.859Zm-1.11,2.126a3.161,3.161,0,0,1-2.242-.8,2.737,2.737,0,0,1-.856-2.1,2.43,2.43,0,0,1,.985-2.053,5.192,5.192,0,0,1,2.844-.856l2.091-.12V8.306a.909.909,0,0,0-.349-.762,1.557,1.557,0,0,0-.977-.271q-1.213,0-1.515.775H11.961a2.8,2.8,0,0,1,1.291-2.2,5.468,5.468,0,0,1,3.133-.809,4.82,4.82,0,0,1,3.064.861,2.9,2.9,0,0,1,1.084,2.41v6.532H17.573V13.651h-.164a2.261,2.261,0,0,1-1.05.972A3.661,3.661,0,0,1,14.715,14.985Zm8.133-.146V5.26h2.961V6.835h.164A2.151,2.151,0,0,1,26.8,5.6a2.464,2.464,0,0,1,1.528-.491,3.027,3.027,0,0,1,1.1.146V7.85a3.69,3.69,0,0,0-1.308-.172,2.334,2.334,0,0,0-1.631.551,1.975,1.975,0,0,0-.607,1.541v5.069Zm9.277,0V7.652H30.594V5.389h1.532V4.459a2.7,2.7,0,0,1,.83-2.173,4.162,4.162,0,0,1,2.715-.71,9.583,9.583,0,0,1,1.446.095V3.676a4.64,4.64,0,0,0-.775-.052,1.444,1.444,0,0,0-.968.258,1.046,1.046,0,0,0-.288.818v.688H37.04V7.652H35.164v7.186ZM42.35,12.859a1.813,1.813,0,0,0,1.218-.422,1.316,1.316,0,0,0,.495-1.041v-.628l-1.609.1a1.986,1.986,0,0,0-1.024.31.811.811,0,0,0-.353.688.862.862,0,0,0,.349.723A1.483,1.483,0,0,0,42.35,12.859Zm-1.11,2.126a3.161,3.161,0,0,1-2.242-.8,2.737,2.737,0,0,1-.856-2.1,2.43,2.43,0,0,1,.985-2.053,5.192,5.192,0,0,1,2.844-.856l2.091-.12V8.306a.909.909,0,0,0-.349-.762,1.557,1.557,0,0,0-.977-.271q-1.213,0-1.515.775H38.486a2.8,2.8,0,0,1,1.291-2.2,5.468,5.468,0,0,1,3.133-.809,4.82,4.82,0,0,1,3.064.861,2.9,2.9,0,0,1,1.084,2.41v6.532H44.1V13.651h-.164a2.261,2.261,0,0,1-1.05.972A3.661,3.661,0,0,1,41.24,14.985Zm8.133-.146V5.26h3.047v9.579ZM50.9,4.149a1.944,1.944,0,0,1-1.252-.37,1.2,1.2,0,0,1-.46-.981,1.2,1.2,0,0,1,.46-.99,2.318,2.318,0,0,1,2.513,0,1.2,1.2,0,0,1,.46.99,1.2,1.2,0,0,1-.46.981A1.958,1.958,0,0,1,50.9,4.149ZM55.56,3.065H58.6V5.389h1.928V7.652H58.6v3.881q0,1.076,1.162,1.076a6.63,6.63,0,0,0,.766-.043v2.169a7.136,7.136,0,0,1-1.454.12,4.556,4.556,0,0,1-2.7-.615,2.38,2.38,0,0,1-.813-2.027V7.652H54.089V5.389H55.56Zm11.8-.645h3.3l-.275,8.348H67.635Zm2.952,12.307a2.244,2.244,0,0,1-2.595,0,1.47,1.47,0,0,1-.46-1.153,1.48,1.48,0,0,1,.46-1.162,2.244,2.244,0,0,1,2.595,0,1.473,1.473,0,0,1,.465,1.162A1.463,1.463,0,0,1,70.311,14.726Z" transform="translate(13.157 14.537)" fill="#fff"></path>
        </g>
      </g>
    </g>
  </g>
</svg>