<svg xmlns="http://www.w3.org/2000/svg" width="600.002" height="699.03" viewBox="0 0 600.002 699.03" role="img"><title></title>
  <g id="illo" transform="translate(-258 -214.999)">
    <g id="scene" transform="translate(258 215)">
      <path id="shadow" d="M290.428,36.528c160.4,0,290.428-8.177,290.428-18.264S450.827,0,290.428,0,0,8.177,0,18.264,130.029,36.528,290.428,36.528Z" transform="translate(5.448 662.502)" fill="#eaf8ff"></path>
      <g id="man" transform="translate(0 7.012)">
        <g id="face" transform="translate(168.729 15.554)">
          <path id="Path_16" data-name="Path 16" d="M48.527,122.01l-5.434,13.136L2.084,122.01s-.651-18.9,0-19.379q7.272-5.387,7.272-35.3C9.356,61.607.041,55.095,0,47.761c-.054-9.736,9.356-33.5,9.356-33.5L70.929,0s5,23.885,8.078,32.63,7.123,19.589,7.179,20.979c.082,2.051-7.166,3.5-7.179,5.424-.174,27.215-11.567,33.56-30.48,36.211Z" transform="translate(18.919 27.099)" fill="#e8b78b"></path>
          <path id="Path_49" data-name="Path 49" d="M0,1S9.358,4.971,15.966,1" transform="translate(79.415 98.403)" fill="#fff"></path>
          <path id="Path_49_-_Contour" data-name="Path 49 - Contour" d="M8.89,3.265a22.4,22.4,0,0,1-3.462-.282A26.1,26.1,0,0,1-.2,1.46.5.5,0,0,1-.46.8.5.5,0,0,1,.2.54,25.6,25.6,0,0,0,5.606,2c2.8.436,6.824.543,10.1-1.427a.5.5,0,1,1,.515.857,13.189,13.189,0,0,1-5.489,1.744A18.015,18.015,0,0,1,8.89,3.265Z" transform="translate(79.415 98.403)" fill="#a87649"></path>
          <path id="Combined_Shape" data-name="Combined Shape" d="M18.976,94.863C7.363,80.982-2.52,69.443.574,42.72,1.741,32.647,11.735,28.189,11.735,28.189V24.236C11.735,9.726,30.942.825,53.946.027,65.555-.375,82.7,3.746,92.99,7.264c12.718,4.352,23.427,12.386,28.946,12.386,1.36,4.294-2.737,11.687-4.146,14.214-8.235,14.8-18.2,14.921-41.336,18.574a153.955,153.955,0,0,0-21.519,4.993C46.244,61.7,53.7,79.151,47.75,80.336c-2.918.575-4.216-2.568-5.983-5.712-2.038-3.612-4.7-7.228-11.161-5.182-1.981.629-4.06,4.426-4.467,6.986,0,6.353,3.809,13.549,3.809,13.549L27.7,113.713S22.814,99.453,18.976,94.863Z" fill="#001345"></path>
          <path id="Path_49-2" data-name="Path 49" d="M0,2.481S4.011-2.881,8.883,2.16" transform="translate(78.307 62.604) rotate(-8)" fill="#fff"></path>
          <path id="Path_49_-_Contour-2" data-name="Path 49 - Contour" d="M0,2.981a.5.5,0,0,1-.3-.1.5.5,0,0,1-.1-.7A7.029,7.029,0,0,1,4.263-.49a6.376,6.376,0,0,1,4.979,2.3.5.5,0,0,1-.719.695,5.44,5.44,0,0,0-4.191-2A6.111,6.111,0,0,0,.4,2.782.5.5,0,0,1,0,2.981Z" transform="translate(78.307 62.604) rotate(-8)" fill="#a87649"></path>
          <path id="Path_17" data-name="Path 17" d="M13.8,6.53c-2.777,0-6-1.036-9.577-3.081A35.345,35.345,0,0,1-.318.386a.5.5,0,0,1-.068-.7.5.5,0,0,1,.7-.068h0A35.046,35.046,0,0,0,4.73,2.589C7.081,3.931,10.562,5.53,13.8,5.53a.5.5,0,0,1,0,1Z" transform="translate(52.262 115.228)" fill="#c99668"></path>
        </g>
        <g id="body">
          <path id="shape" d="M128.558,180.109c-9.98-6.222-25.258-15.252-37.911-22-41.62-22.188-61.959-97.548-66.837-104.17S-6.336,39.873,1.494,24.886c5.22-9.991,11.528-12.643,27.194-8.235C30.351-1.291,40.909-.684,40.909.515v34.08c22.315,48.874,42.572,78.986,55.585,86.329,6.192,3.495,20.264,12.276,32.5,16.2" fill="#e8b78b"></path>
          <path id="shape-2" data-name="shape" d="M0,0C13.5,4.26,43.8,9.309,63.5,15.149a27.4,27.4,0,0,1,14.334,10.1c11.977,16.392,22.483,21.254,33.5,19.816a26.377,26.377,0,0,0,13.673-5.952q-1.533-9.11-1.172-12.995c.142-1.525,9.768-.56,14.33,0,13.809,1.694,42.495,12.638,53.5,31,9.972,16.641,38.679,52.172,49.657,55.458v47.844H49.171c1.4-50.233,0-76.714-6.637-79.915s-26.881-4.3-36.512-14.931A17.191,17.191,0,0,1,1.733,54.666Z" transform="translate(112.42 123.312)" fill="#fff"></path>
          <path id="shape-3" data-name="shape" d="M10.089,0S-3.546,39.332.957,45.659c9.006,9.942,34.129.615,36.528-4.566C39.206,37.375,32.919,0,32.919,0Z" transform="translate(156.148 627.655)" fill="#2aa5df"></path>
          <path id="shape-4" data-name="shape" d="M6.383,0S-4.185,38.269,2.037,50.883,58.409,84.69,58.409,70.122c0-6.321-5.564-13.538-14.779-26.965-4.942-7.2-2.883-24.6-2.883-24.6Z" transform="translate(252.983 610.936)" fill="#2aa5df"></path>
          <path id="shape-5" data-name="shape" d="M146.179,19.153s53.768,16.087,72.986,41.617c18.582,26.161,16.679,64.319,0,118.715-12.11,39.5-36.528,109.583-36.528,109.583l-41.789-10.815,18.959-121.6s12.617-58.76-27.4-63.923c-35.29-4.554-53.8-12.99-54.791,31.962.987,48.864,0,164.374,0,164.374H45.659S0,113.041,0,83.6,12.794,0,58.68,0C103.211,0,146.179,19.153,146.179,19.153Z" transform="translate(116.011 343.153)" fill="#2aa5df"></path>
          <path id="shape-6" data-name="shape" d="M27.406,82.687a.5.5,0,0,1-.19-.038c-.051-.021-5.12-2.11-10.45-4.836-7.229-3.7-11.481-6.759-12.638-9.1l-.014-.03C2.94,65.844,1.969,60.458,1.229,52.673c-.59-6.2-1.039-13.937-1.334-23C-.608,14.248-.491.136-.489,0a.5.5,0,0,1,.5-.5.5.5,0,0,1,.5.5c0,.141-.119,14.234.384,29.639.663,20.319,2.093,33.679,4.138,38.639,1.057,2.116,5.271,5.1,12.19,8.641,5.294,2.707,10.325,4.781,10.375,4.8a.5.5,0,0,1-.19.963Z" transform="translate(116.001 121.691)" fill="#cef"></path>
        </g>
      </g>
      <g id="desk" transform="translate(10.994 297.642)">
        <rect id="shape-7" data-name="shape" width="575.31" height="27.396" rx="2" fill="#001345"></rect>
        <path id="shape-8" data-name="shape" d="M1,0H505.82a1,1,0,0,1,1,1V71.055a2,2,0,0,1-2,2H2a2,2,0,0,1-2-2V1A1,1,0,0,1,1,0Z" transform="translate(31.962 22.83)" fill="#001345"></path>
        <path id="shape-9" data-name="shape" d="M0,0H18.264a0,0,0,0,1,0,0V295.787a1,1,0,0,1-1,1H1a1,1,0,0,1-1-1V0A0,0,0,0,1,0,0Z" transform="translate(77.621 85.897)" fill="#001345"></path>
        <path id="shape-10" data-name="shape" d="M0,0H18.264a0,0,0,0,1,0,0V295.787a1,1,0,0,1-1,1H1a1,1,0,0,1-1-1V0A0,0,0,0,1,0,0Z" transform="translate(474.859 85.897)" fill="#001345"></path>
      </g>
      <g id="computer" transform="translate(289.517 73.911)">
        <path id="shape-11" data-name="shape" d="M17.264,0-1,141.544H181.638L204.468,0Z" transform="translate(37.528)" fill="#fff"></path>
        <path id="shape_-_Contour" data-name="shape - Contour" d="M18.143,1,.137,140.544H180.786L203.294,1H18.143m-.879-1h187.2l-22.83,141.544H-1Z" transform="translate(37.528)" fill="#cef"></path>
        <path id="shape-12" data-name="shape" d="M13.7,0,0,77.621H50.225L59.357,0Z" transform="translate(100.451 105.017)" fill="#eaf8ff"></path>
        <path id="shape-13" data-name="shape" d="M4.566,0,0,50.225H228.3L232.863,0Z" transform="translate(0 173.506)" fill="#cef"></path>
        <path id="shape_-_Contour-2" data-name="shape - Contour" d="M5.479,1,1.1,49.225H227.384L231.768,1H5.479M4.566,0h228.3L228.3,50.225H0Z" transform="translate(0 173.506)" fill="#cef"></path>
      </g>
      <path id="shape-14" data-name="shape" d="M43.095,82.186a2,2,0,0,1-2-2V65.923a2,2,0,0,1,2-2h41.66a2,2,0,0,1,2,2V80.186a2,2,0,0,1-2,2ZM35.857,59.864,23.5,52.732A2,2,0,0,1,22.772,50L43.6,13.922a2,2,0,0,1,2.732-.732l12.353,7.132a2,2,0,0,1,.732,2.732L38.588,59.132a2,2,0,0,1-2.732.733ZM2,45.659a2,2,0,0,1-2-2V2A2,2,0,0,1,2,0H16.265a2,2,0,0,1,2,2V43.659a2,2,0,0,1-2,2Z" transform="translate(513.247)" fill="#ec4847"></path>
    </g>
  </g>
</svg>