<svg xmlns="http://www.w3.org/2000/svg" xmlns:xlink="http://www.w3.org/1999/xlink" width="78.646" height="80.94" viewBox="0 0 78.646 80.94" role="img"><title>Service client</title>
  <defs>
    <clipPath id="clip-path">
      <rect id="Rectangle_20" data-name="Rectangle 20" width="38.369" height="41.629" transform="matrix(0.94, 0.342, -0.342, 0.94, 14.238, 0)" fill="#fff"></rect>
    </clipPath>
  </defs>
  <g id="Groupe_8" data-name="Groupe 8" transform="translate(-577 -320.016)">
    <g id="pageproduit-illu-1" transform="translate(605.353 320.016)" clip-path="url(#clip-path)">
      <rect id="Rectangle_19" data-name="Rectangle 19" width="5.116" height="2.558" transform="translate(17.93 39.544) rotate(20.445)" fill="#f1faff"></rect>
      <path id="Tracé_1" data-name="Tracé 1" d="M13.756,34.045l4.69-11.937c.142-.426.341-1.279,0-1.279-4.263-2.558-6.821,0-7.674,5.968C7.361,31.914,11.34,33.761,13.756,34.045Z" transform="translate(-1.408 -3.454)" fill="#f1faff"></path>
      <path id="Tracé_2" data-name="Tracé 2" d="M37.119,42.75,42.026,30.9c.193-.406.642-1.158.888-.921C47.758,31.1,47.825,34.713,44.3,39.6,43.2,45.652,39.056,44.222,37.119,42.75Z" transform="translate(-5.486 -4.941)" fill="#f1faff"></path>
      <path id="Tracé_3" data-name="Tracé 3" d="M40.857,26.733A13.125,13.125,0,1,0,16.19,17.755a3.959,3.959,0,0,0-4.9,2.8L8.948,26.992A4.07,4.07,0,0,0,11.563,32.6l1.987.723a.729.729,0,0,0,.935-.436l4.828-13.265a.729.729,0,0,0-.436-.935l-1.3-.474A11.667,11.667,0,1,1,39.5,26.193l-1.3-.474a.729.729,0,0,0-.935.436L32.444,39.4a.729.729,0,0,0,.436.935l1.3.474c-1.905,4.637-4.568,4.918-9.156,3.473l.167-.459a1.458,1.458,0,0,0-.872-1.869l-4.31-1.569a1.458,1.458,0,0,0-1.869.872l-.811,2.227a1.458,1.458,0,0,0,.872,1.869l4.324,1.574a1.458,1.458,0,0,0,1.869-.872l.145-.4c4.417,1.382,8.5,1.852,11.026-4.391a3.959,3.959,0,0,0,4.9-2.8l2.344-6.441A3.952,3.952,0,0,0,40.857,26.733ZM17.71,19.76,13.371,31.682,12.035,31.2a2.648,2.648,0,0,1-1.743-3.738l2.344-6.441a2.65,2.65,0,0,1,3.738-1.743ZM23.4,44.521l-.379,1.042L18.7,43.988l.811-2.227,4.324,1.574ZM39.1,37.965a2.65,2.65,0,0,1-3.738,1.743l-1.3-.474,4.329-11.895,1.336.486a2.648,2.648,0,0,1,1.743,3.738Z" transform="translate(-1.284 -1.874)" fill="#cef" stroke="#cef" stroke-width="0.5"></path>
    </g>
    <g id="pageproduit-illu-2" transform="translate(577 366.878)">
      <path id="Tracé_4" data-name="Tracé 4" d="M27.94,2A2.558,2.558,0,0,1,30.9,4.071l3.684,20.893a2.558,2.558,0,0,1-2.075,2.963l-6.894,1.216.914,5.186-6.1-4.272L8.161,32.222A2.558,2.558,0,0,1,5.2,30.147L1.514,9.254A2.558,2.558,0,0,1,3.589,6.29Z" transform="translate(-0.622 -1.105)" fill="#fff" fill-rule="evenodd"></path>
      <path id="Tracé_5" data-name="Tracé 5" d="M25.471,29l-.84.148a.853.853,0,0,1,.692-.988Zm.914,5.186.84-.148a.853.853,0,0,1-1.329.847Zm-6.1-4.272-.148-.84a.853.853,0,0,1,.637.141ZM5.051,30l.84-.148ZM1.367,9.106l-.84.148ZM29.916,4.072a1.705,1.705,0,0,0-1.975-1.383l-.3-1.679A3.411,3.411,0,0,1,31.6,3.776ZM33.6,24.966,29.916,4.072l1.679-.3L35.28,24.669Zm-1.383,1.975A1.705,1.705,0,0,0,33.6,24.966l1.679-.3a3.411,3.411,0,0,1-2.766,3.951Zm-6.894,1.216,6.894-1.216.3,1.679-6.894,1.216Zm.988.692.914,5.186-1.679.3-.914-5.186ZM25.9,34.881l-6.1-4.272.978-1.4,6.1,4.272ZM7.866,31.235l12.271-2.164.3,1.679L8.162,32.914ZM5.891,29.851a1.705,1.705,0,0,0,1.975,1.383l.3,1.679a3.411,3.411,0,0,1-3.951-2.767ZM2.206,8.958,5.891,29.851l-1.679.3L.527,9.254ZM3.59,6.983A1.705,1.705,0,0,0,2.206,8.958l-1.679.3A3.411,3.411,0,0,1,3.294,5.3ZM27.941,2.689,3.59,6.983,3.294,5.3,27.645,1.01Z" transform="translate(-0.475 -0.957)" fill="#cef"></path>
      <path id="Tracé_6" data-name="Tracé 6" d="M15.667,17.57c-.39-2.213,1-3.873,3.666-4.343,2.566-.452,4.446.547,4.8,2.56a2.922,2.922,0,0,1-1.279,2.971c-1.01.84-1.255,1.23-1.128,1.952l.059.337-2.847.5-.058-.188a2.413,2.413,0,0,1,.784-3.057c1.023-.858,1.236-1.194,1.121-1.851a.981.981,0,0,0-1.242-.715,1.08,1.08,0,0,0-.894,1.307Zm5.462,7.719a1.628,1.628,0,1,1,1.425-1.9A1.672,1.672,0,0,1,21.129,25.289Z" transform="translate(-2.704 -2.749)" fill="#cef" fill-rule="evenodd"></path>
    </g>
  </g>
</svg>