<svg xmlns="http://www.w3.org/2000/svg" width="84.863" height="77.306" viewBox="0 0 84.863 77.306" role="img"><title>Intéractif</title>
  <g id="Groupe_6" data-name="Groupe 6" transform="translate(-204.507 -233.513)">
    <g id="growth_1" data-name="growth 1" transform="matrix(0.966, 0.259, -0.259, 0.966, 215.492, 261.14)">
      <g id="Group">
        <path id="Vector" d="M37.265,0H2.734A2.737,2.737,0,0,0,0,2.734V27.447a2.737,2.737,0,0,0,2.734,2.734h8.582L6.775,38.254A1.172,1.172,0,1,0,8.818,39.4l2.037-3.621h18.29L31.182,39.4a1.172,1.172,0,0,0,2.043-1.149l-4.541-8.073h8.582A2.737,2.737,0,0,0,40,27.447V2.734A2.738,2.738,0,0,0,37.265,0ZM12.174,33.437l1.832-3.256h11.99l1.832,3.256Zm25.483-5.991a.391.391,0,0,1-.391.391H2.734a.391.391,0,0,1-.391-.391V2.734a.391.391,0,0,1,.391-.391H37.265a.391.391,0,0,1,.391.391Z" transform="translate(0.001)" fill="#cef" stroke="#fff" stroke-width="1"></path>
        <path id="Vector-2" data-name="Vector" d="M29.334,16.1h-.552V1.172A1.172,1.172,0,0,0,27.61,0H22.923a1.172,1.172,0,0,0-1.172,1.172V16.1H18.768V7.989A1.172,1.172,0,0,0,17.6,6.817H12.909a1.172,1.172,0,0,0-1.172,1.172V16.1H8.755v-4.62a1.172,1.172,0,0,0-1.172-1.172H2.9a1.172,1.172,0,0,0-1.172,1.172V16.1H1.172a1.172,1.172,0,0,0,0,2.344H29.334a1.172,1.172,0,0,0,0-2.344Zm-22.922,0H4.067V12.656H6.411Zm10.014,0H14.081V9.16h2.344Zm10.014,0H24.094V2.344h2.344Z" transform="translate(4.747 6.354)" fill="#cef" stroke="#fff" stroke-width="1"></path>
      </g>
      <rect id="Rectangle_54" data-name="Rectangle 54" width="3.428" height="14.798" transform="translate(28.277 8.186)" fill="#f1faff"></rect>
      <rect id="Rectangle_55" data-name="Rectangle 55" width="3.292" height="7.966" transform="translate(18.36 15.013)" fill="#f1faff"></rect>
      <rect id="Rectangle_56" data-name="Rectangle 56" width="3.32" height="4.397" transform="translate(8.339 18.538)" fill="#f1faff"></rect>
    </g>
    <g id="self-growth_1" data-name="self-growth 1" transform="translate(243 247.895) rotate(-23.414)">
      <g id="Group-2" data-name="Group">
        <path id="Vector-3" data-name="Vector" d="M19.454,7.451C19.421,7.419,11.175.416,11.175.416A1.754,1.754,0,0,0,8.9.418C8.873.442.62,7.449.62,7.449a1.758,1.758,0,0,0,1.138,3.1H2.981V15.82a.586.586,0,1,0,1.172,0V9.961a.586.586,0,0,0-.586-.586H1.758a.586.586,0,0,1-.379-1.033L9.657,1.314l0,0a.585.585,0,0,1,.757,0l8.277,7.028,0,0a.585.585,0,0,1-.378,1.033H16.51a.586.586,0,0,0-.586.586V27.109H4.153V15.82c0-.324.113-.482-.211-.482s-.961.159-.961.482V27.7a.586.586,0,0,0,.586.586H16.51A.586.586,0,0,0,17.1,27.7V10.547H18.32a1.755,1.755,0,0,0,1.134-3.1Z" transform="translate(16.114 0)" fill="#cef"></path>
        <path id="Vector-4" data-name="Vector" d="M13.529,0H.586A.586.586,0,0,0,0,.586V2.93a.586.586,0,0,0,.586.586H13.529a.586.586,0,0,0,.586-.586V.586A.586.586,0,0,0,13.529,0Zm-.586,2.344H1.172V1.172H12.943Z" transform="translate(19.095 36.484)" fill="#cef"></path>
        <path id="Vector-5" data-name="Vector" d="M13.529,0H.586A.586.586,0,0,0,0,.586V5.273a.586.586,0,0,0,.586.586H13.529a.586.586,0,0,0,.586-.586V.586A.586.586,0,0,0,13.529,0Zm-.586,4.688H1.172V1.172H12.943Z" transform="translate(19.095 29.453)" fill="#cef"></path>
      </g>
    </g>
  </g>
</svg>