<svg xmlns="http://www.w3.org/2000/svg" width="85.072" height="87.545" viewBox="0 0 85.072 87.545" role="img"><title>Sécurité</title>
  <g id="Groupe_7" data-name="Groupe 7" transform="translate(-194.646 -222.417)">
    <g id="lock_2" data-name="lock 2" transform="matrix(0.966, -0.259, 0.259, 0.966, 235, 229.05)">
      <g id="Group">
        <g id="Group-2" data-name="Group">
          <g id="Vector" transform="translate(7.116 2.667)" fill="#f1faff">
            <path d="M 25.2997989654541 36.58333587646484 L 3.162489652633667 36.58333587646484 C 1.832239627838135 36.58333587646484 0.7499996423721313 35.52416610717773 0.7499996423721313 34.22227478027344 L 0.7499996423721313 14.77780628204346 C 0.7499996423721313 14.76643562316895 0.7644696235656738 14.74999618530273 0.7906396389007568 14.74999618530273 L 3.162489652633667 14.74999618530273 L 3.912489652633667 14.74999618530273 L 3.912489652633667 13.99999618530273 L 3.912489652633667 10.88886642456055 C 3.912489652633667 5.298275947570801 8.541399955749512 0.7499960064888 14.23110961914062 0.7499960064888 C 19.92082023620605 0.7499960064888 24.54973030090332 5.298275947570801 24.54973030090332 10.88886642456055 L 24.54973030090332 13.99999618530273 L 24.54973030090332 14.74999618530273 L 25.29973030090332 14.74999618530273 L 27.67157936096191 14.74999618530273 C 27.69775009155273 14.74999618530273 27.71221923828125 14.76643562316895 27.71221923828125 14.77780628204346 L 27.71221923828125 34.22219467163086 C 27.71221923828125 35.52413558959961 26.63000869750977 36.58333587646484 25.2997989654541 36.58333587646484 Z M 11.57126140594482 26.15950965881348 L 11.11868000030518 30.16326522827148 C 11.06973934173584 30.59724617004395 11.21084976196289 31.03213691711426 11.50581932067871 31.35662651062012 C 11.79727935791016 31.67724609375 12.21427917480469 31.86113548278809 12.64989948272705 31.86113548278809 L 15.8123893737793 31.86113548278809 C 16.2480297088623 31.86113548278809 16.6650390625 31.67724609375 16.95648956298828 31.35660552978516 C 17.25135040283203 31.03208541870117 17.39242935180664 30.59732627868652 17.34366989135742 30.1636962890625 L 16.89109039306641 26.15951156616211 C 17.69223976135254 25.43513488769531 18.14368057250977 24.4274845123291 18.14368057250977 23.33333587646484 C 18.14368057250977 21.20429611206055 16.38854026794434 19.47219657897949 14.23117923736572 19.47219657897949 C 12.07382965087891 19.47219657897949 10.31868934631348 21.20429611206055 10.31868934631348 23.33333587646484 C 10.31868934631348 24.4274845123291 10.77012634277344 25.43513298034668 11.57126140594482 26.15950965881348 Z M 14.23110961914062 3.916666030883789 C 10.32998943328857 3.916666030883789 7.15619945526123 7.04438591003418 7.15619945526123 10.88886642456055 L 7.15619945526123 13.99999618530273 L 7.15619945526123 14.74999618530273 L 7.90619945526123 14.74999618530273 L 20.5560188293457 14.74999618530273 L 21.3060188293457 14.74999618530273 L 21.3060188293457 13.99999618530273 L 21.3060188293457 10.88886642456055 C 21.3060188293457 7.04438591003418 18.13222885131836 3.916666030883789 14.23110961914062 3.916666030883789 Z" stroke="none"></path>
            <path d="M 14.23110961914062 1.499996185302734 C 8.954959869384766 1.499996185302734 4.66248893737793 5.711826324462891 4.66248893737793 10.88886642456055 L 4.66248893737793 15.49999618530273 L 1.5 15.49999618530273 L 1.5 34.22226715087891 C 1.5 35.11061477661133 2.245790481567383 35.83333587646484 3.16248893737793 35.83333587646484 L 25.2997989654541 35.83333587646484 C 26.21645927429199 35.83333587646484 26.96221923828125 35.1105842590332 26.96221923828125 34.22219467163086 L 26.96221923828125 15.49999618530273 L 23.79973030090332 15.49999618530273 L 23.79973030090332 10.88886642456055 C 23.79973030090332 5.711826324462891 19.50725936889648 1.499996185302734 14.23110961914062 1.499996185302734 M 22.0560188293457 15.49999618530273 L 6.406200408935547 15.49999618530273 L 6.406200408935547 10.88886642456055 C 6.406200408935547 6.630826950073242 9.916439056396484 3.166667938232422 14.23110961914062 3.166667938232422 C 18.54578018188477 3.166667938232422 22.0560188293457 6.630826950073242 22.0560188293457 10.88886642456055 L 22.0560188293457 15.49999618530273 M 17.67680740356445 26.43319511413574 L 18.08897972106934 30.07988548278809 C 18.16183090209961 30.72774505615234 17.95140838623047 31.37687683105469 17.51147079467773 31.86107635498047 C 17.07818984985352 32.33774566650391 16.45890045166016 32.61113739013672 15.8123893737793 32.61113739013672 L 12.64989948272705 32.61113739013672 C 12.00341987609863 32.61113739013672 11.38414001464844 32.33776473999023 10.95084953308105 31.86111640930176 C 10.5107593536377 31.37698554992676 10.30027961730957 30.72758483886719 10.3734188079834 30.07901573181152 L 10.78554344177246 26.43317794799805 C 10.01206016540527 25.59450531005859 9.568689346313477 24.48810195922852 9.568689346313477 23.33333587646484 C 9.568689346313477 20.79074668884277 11.66026878356934 18.72219657897949 14.23117923736572 18.72219657897949 C 16.80208969116211 18.72219657897949 18.89368057250977 20.79074668884277 18.89368057250977 23.33333587646484 C 18.89368057250977 24.48811149597168 18.45029830932617 25.59452629089355 17.67680740356445 26.43319511413574 M 14.23110961914062 -3.814697265625e-06 C 20.33448028564453 -3.814697265625e-06 25.29973030090332 4.884685516357422 25.29973030090332 10.88886642456055 L 25.29973030090332 13.99999618530273 L 27.67157936096191 13.99999618530273 C 28.10858917236328 13.99999618530273 28.46221923828125 14.34788513183594 28.46221923828125 14.77780532836914 L 28.46221923828125 34.22219467163086 C 28.46221923828125 35.93807601928711 27.04393005371094 37.33333587646484 25.2997989654541 37.33333587646484 L 3.16248893737793 37.33333587646484 C 1.418289184570312 37.33333587646484 0 35.93807601928711 0 34.22226715087891 L 0 14.77780532836914 C 0 14.34788513183594 0.3536300659179688 13.99999618530273 0.7906398773193359 13.99999618530273 L 3.16248893737793 13.99999618530273 L 3.16248893737793 10.88886642456055 C 3.16248893737793 4.884685516357422 8.127738952636719 -3.814697265625e-06 14.23110961914062 -3.814697265625e-06 Z M 20.5560188293457 13.99999618530273 L 20.5560188293457 10.88886642456055 C 20.5560188293457 7.457986831665039 17.71862030029297 4.666667938232422 14.23110961914062 4.666667938232422 C 10.74359893798828 4.666667938232422 7.906200408935547 7.457986831665039 7.906200408935547 10.88886642456055 L 7.906200408935547 13.99999618530273 L 20.5560188293457 13.99999618530273 Z M 15.8123893737793 31.11113548278809 C 16.03704833984375 31.11113548278809 16.251708984375 31.01692581176758 16.4015007019043 30.85213661193848 C 16.55130004882812 30.68726539611816 16.62305068969727 30.46698570251465 16.59836959838867 30.24750518798828 L 16.09967994689941 25.8353271484375 C 16.90959930419922 25.25577545166016 17.39368057250977 24.33899688720703 17.39368057250977 23.33333587646484 C 17.39368057250977 21.61745643615723 15.97538948059082 20.22219657897949 14.23117923736572 20.22219657897949 C 12.48697948455811 20.22219657897949 11.06868934631348 21.61752700805664 11.06868934631348 23.33333587646484 C 11.06868934631348 24.33899688720703 11.55276870727539 25.25577545166016 12.36268043518066 25.8353271484375 L 11.86392974853516 30.24750518798828 C 11.83917045593262 30.46706581115723 11.91098976135254 30.68734550476074 12.06078910827637 30.85213661193848 C 12.21059036254883 31.01692581176758 12.42523956298828 31.11113548278809 12.64989948272705 31.11113548278809 L 15.8123893737793 31.11113548278809 Z" stroke="none" fill="#cef"></path>
          </g>
        </g>
      </g>
    </g>
    <g id="security_1" data-name="security 1" transform="translate(205.391 254) rotate(20)">
      <g id="Vector-2" data-name="Vector" transform="translate(4.945 0)" fill="#cef">
        <path d="M 17.22850608825684 44.74998092651367 C 17.22847747802734 44.74998092651367 17.22846221923828 44.74998092651367 17.22843170166016 44.74998092651367 C 17.14660263061523 44.74998092651367 17.0671329498291 44.73342132568359 16.99224281311035 44.70075988769531 L 14.70953273773193 43.70602035522461 C 5.935572624206543 39.86954879760742 0.2597624063491821 31.2027702331543 0.2500024139881134 21.62646865844727 L 0.2500024139881134 9.854598999023438 C 0.2500024139881134 9.638179779052734 0.3677324056625366 9.439129829406738 0.5572524070739746 9.335129737854004 L 17.00210189819336 0.3230994641780853 C 17.08925247192383 0.2752494513988495 17.18757247924805 0.2500094473361969 17.28660202026367 0.2500094473361969 C 17.38321304321289 0.2500094473361969 17.47945213317871 0.2741094529628754 17.56490325927734 0.319709450006485 L 34.47802352905273 9.331889152526855 C 34.67139053344727 9.434869766235352 34.79148101806641 9.635149002075195 34.79148101806641 9.854598999023438 L 34.79148101806641 21.39319038391113 C 34.79102325439453 26.14970970153809 33.39902114868164 30.75772857666016 30.76597213745117 34.71903991699219 C 28.13289260864258 38.68037796020508 24.42308235168457 41.74776840209961 20.0375919342041 43.58958053588867 L 17.46320152282715 44.70133972167969 C 17.38860893249512 44.73363876342773 17.30970573425293 44.74998092651367 17.22850608825684 44.74998092651367 Z M 17.29048156738281 1.514509439468384 L 17.1720027923584 1.579449415206909 L 1.563392400741577 10.1338996887207 L 1.433542370796204 10.20505905151367 L 1.433542370796204 10.35312938690186 L 1.433542370796204 21.62671852111816 C 1.443042397499084 30.73229026794434 6.840142250061035 38.97282791137695 15.1833028793335 42.6207389831543 L 17.12969207763672 43.46986770629883 L 17.2291431427002 43.51325988769531 L 17.3287525177002 43.47024917602539 L 19.56862258911133 42.50325775146484 L 19.57514190673828 42.50045013427734 L 19.57968521118164 42.49817657470703 C 23.74771499633789 40.74708938598633 27.27369117736816 37.8317985534668 29.77709197998047 34.06692123413086 C 32.28201293945312 30.29973983764648 33.60654067993164 25.91724967956543 33.60747146606445 21.39323997497559 L 33.60747146606445 10.35923957824707 L 33.60747146606445 10.20917987823486 L 33.47504425048828 10.13860988616943 L 17.40972328186035 1.578049421310425 L 17.29048156738281 1.514509439468384 Z" stroke="none"></path>
        <path d="M 17.28653335571289 0.5 C 17.22948265075684 0.5 17.17279243469238 0.5145683288574219 17.12224197387695 0.5423202514648438 L 0.677520751953125 9.554290771484375 C 0.568023681640625 9.6143798828125 0.5000038146972656 9.729457855224609 0.5000038146972656 9.854598999023438 L 0.5000038146972656 21.6262092590332 C 0.509674072265625 31.10327911376953 6.126672744750977 39.68024826049805 14.80941200256348 43.47682952880859 L 17.0921630859375 44.47159957885742 C 17.1782054901123 44.50911331176758 17.27717399597168 44.50945663452148 17.36409187316895 44.47182846069336 L 19.94078254699707 43.35908889770508 C 24.28074264526367 41.53639984130859 27.9520320892334 38.50085830688477 30.55777359008789 34.58065032958984 C 33.16348266601562 30.66046905517578 34.54103088378906 26.10029983520508 34.54148101806641 21.39319038391113 L 34.54148101806641 9.854598999023438 C 34.54148101806641 9.727741241455078 34.47215270996094 9.612010955810547 34.36044311523438 9.552520751953125 L 17.44718170166016 0.5402603149414062 C 17.3978328704834 0.5139198303222656 17.34228324890137 0.5 17.28653335571289 0.5 M 19.6841926574707 42.72543334960938 L 19.6677131652832 42.7327880859375 L 17.22862243652344 43.78578948974609 L 15.08314323425293 42.84978866577148 C 6.649063110351562 39.16212844848633 1.193153381347656 30.83178901672363 1.183544158935547 21.62671852111816 L 1.183544158935547 10.05698776245117 L 17.2888126373291 1.230339050292969 L 33.85747146606445 10.05910110473633 L 33.85747146606445 21.39328956604004 C 33.85653305053711 25.96669960021973 32.51754379272461 30.39703941345215 29.98526191711426 34.20534896850586 C 27.45608329772949 38.00901031494141 23.89435958862305 40.95487976074219 19.6841926574707 42.72543334960938 M 17.28659057617188 -3.814697265625e-06 C 17.42258644104004 0 17.55868911743164 0.03301620483398438 17.6826114654541 0.09915924072265625 L 34.59557342529297 9.111259460449219 C 34.8699836730957 9.257389068603516 35.04148101806641 9.543540954589844 35.04148101806641 9.854598999023438 L 35.04148101806641 21.39319038391113 C 35.04054260253906 31.1880989074707 29.16529273986816 40.02729034423828 20.13439178466797 43.8200798034668 L 17.56232261657715 44.93085098266602 C 17.34852981567383 45.02341079711914 17.10560989379883 45.0229377746582 16.89229202270508 44.92990875244141 L 14.60966300964355 43.93519973754883 C 5.743223190307617 40.05830001831055 0.0098724365234375 31.30368804931641 3.814697265625e-06 21.62671852111816 L 3.814697265625e-06 9.854598999023438 C 3.814697265625e-06 9.546829223632812 0.1672706604003906 9.263969421386719 0.4369735717773438 9.115959167480469 L 16.8819522857666 0.103851318359375 C 17.00798797607422 0.03464889526367188 17.1472339630127 -7.62939453125e-06 17.28659057617188 -3.814697265625e-06 Z M 17.22966194152832 43.24073028564453 L 19.47516250610352 42.27091979980469 C 27.88395309448242 38.74172973632812 33.3555908203125 30.51288986206055 33.35747146606445 21.39319038391113 L 33.35747146606445 10.35923004150391 L 17.29215240478516 1.798679351806641 L 1.683544158935547 10.35313034057617 L 1.683544158935547 21.62671852111816 C 1.692943572998047 30.63459014892578 7.030193328857422 38.7830696105957 15.2834529876709 42.39167022705078 L 17.22966194152832 43.24073028564453 Z" stroke="none" fill="#cef"></path>
      </g>
      <g id="Vector-3" data-name="Vector" transform="translate(14.542 17.567)" fill="#cef">
        <path d="M 5.290611743927002 10.36143970489502 C 4.970341682434082 10.36143970489502 4.667411804199219 10.22182941436768 4.459521770477295 9.978399276733398 L 0.01173172798007727 4.769889354705811 C -0.177768275141716 4.548279285430908 -0.2695482671260834 4.265919208526611 -0.2466082721948624 3.974959373474121 C -0.2236682772636414 3.684049367904663 -0.08879826962947845 3.419629335403442 0.1331417262554169 3.230409383773804 C 0.3306417167186737 3.061759233474731 0.5824117064476013 2.968809366226196 0.8419317007064819 2.968809366226196 C 1.162121772766113 2.968809366226196 1.464971780776978 3.108409404754639 1.672821760177612 3.351799249649048 L 5.427829265594482 7.748814105987549 L 14.95913219451904 -0.005040694959461689 C 15.15322208404541 -0.1629906892776489 15.39779186248779 -0.2500006854534149 15.64774131774902 -0.2500006854534149 C 15.97816181182861 -0.2500006854534149 16.28710174560547 -0.1031806915998459 16.49537086486816 0.1528093069791794 C 16.67953109741211 0.3791092932224274 16.76455116271973 0.6635693311691284 16.73473167419434 0.953769326210022 C 16.70492172241211 1.24402928352356 16.56381225585938 1.505189299583435 16.33740234375 1.689149260520935 L 5.978771686553955 10.1166296005249 C 5.784941673278809 10.27446937561035 5.540511608123779 10.36143970489502 5.290611743927002 10.36143970489502 Z" stroke="none"></path>
        <path d="M 15.64773941040039 1.9073486328125e-06 C 15.4610013961792 1.9073486328125e-06 15.27308177947998 0.06178855895996094 15.11690139770508 0.1888895034790039 L 5.396242141723633 8.096789360046387 L 1.482701301574707 3.514149188995361 C 1.180571556091309 3.160338401794434 0.6491489410400391 3.118520259857178 0.2953414916992188 3.420649528503418 C -0.05846786499023438 3.722299098968506 -0.1002883911132812 4.254199504852295 0.2018413543701172 4.607539176940918 L 4.649621963500977 9.816039085388184 C 4.946581840515137 10.16374969482422 5.466721534729004 10.2111988067627 5.821002006530762 9.922698974609375 L 16.17975234985352 1.495119094848633 C 16.54061126708984 1.201919555664062 16.59511184692383 0.6714391708374023 16.30144119262695 0.3105792999267578 C 16.13513946533203 0.106165885925293 15.89246559143066 1.9073486328125e-06 15.64773941040039 1.9073486328125e-06 M 15.64774131774902 -0.5000009536743164 C 16.0537223815918 -0.5000009536743164 16.43335151672363 -0.3195705413818359 16.68930244445801 -0.004961013793945312 C 16.91559219360352 0.2731094360351562 17.02006149291992 0.6226797103881836 16.98343086242676 0.9793195724487305 C 16.94678115844727 1.336069107055664 16.7733325958252 1.657069206237793 16.49505233764648 1.883179664611816 L 6.136551856994629 10.31054973602295 C 5.898331642150879 10.50452899932861 5.597841262817383 10.61143970489502 5.290611267089844 10.61143970489502 C 4.897101402282715 10.61143970489502 4.52489185333252 10.43987941741943 4.269421577453613 10.14075946807861 L -0.1783885955810547 4.932229518890381 C -0.4112186431884766 4.659939289093018 -0.5240287780761719 4.312909126281738 -0.4958286285400391 3.955299377441406 C -0.4676380157470703 3.597759246826172 -0.3018684387207031 3.272759437561035 -0.02904891967773438 3.040159225463867 C 0.2135124206542969 2.833029270172119 0.5229120254516602 2.718809127807617 0.8418416976928711 2.718809127807617 C 1.235391616821289 2.718839168548584 1.607551574707031 2.890389442443848 1.862931251525879 3.189459323883057 L 5.459421157836914 7.400843620300293 L 14.80137157440186 -0.1989707946777344 C 15.03988170623779 -0.3930702209472656 15.34048175811768 -0.5000009536743164 15.64774131774902 -0.5000009536743164 Z" stroke="none" fill="#cef"></path>
      </g>
    </g>
  </g>
</svg>